<svg xmlns="http://www.w3.org/2000/svg" width="800" height="800"><circle fill="#345B2C" stroke="#E1B227" stroke-width="11" cx="391.5" cy="371.5" r="295"/><ellipse fill="#3B65AF" stroke="#E2B329" stroke-width="11" cx="392.833" cy="369.833" rx="212.333" ry="211.333"/><g fill="#FFF"><path d="M185.98 490.096l-6.977 3.125-.306-.737c1.63-1.076 2.7-2.518 3.208-4.326.51-1.808.436-3.502-.218-5.08-.506-1.224-1.19-2.074-2.057-2.554s-1.667-.566-2.404-.262c-.465.194-.827.492-1.084.896-.35.546-.604 1.306-.76 2.278-.116.71-.187 2.26-.214 4.645-.03 3.363-.383 5.77-1.056 7.22-.68 1.432-1.717 2.437-3.114 3.016-1.772.734-3.623.57-5.554-.488-1.93-1.06-3.406-2.82-4.424-5.277-.315-.76-.546-1.51-.694-2.252-.148-.742-.248-1.704-.298-2.888-.034-.667-.128-1.188-.282-1.56-.13-.313-.37-.598-.717-.854-.35-.258-.784-.41-1.303-.456l-.278-.67 7.99-3.31.28.67c-2.03 1.47-3.32 3.198-3.874 5.19-.554 1.993-.473 3.854.243 5.582.554 1.34 1.315 2.283 2.282 2.825.967.543 1.87.64 2.71.292.505-.21.925-.567 1.26-1.073s.587-1.155.75-1.947c.165-.793.263-2.12.294-3.983.024-2.612.167-4.544.43-5.795.262-1.252.695-2.31 1.3-3.17.606-.862 1.407-1.5 2.402-1.91 1.68-.697 3.413-.576 5.195.36 1.782.94 3.12 2.488 4.015 4.65.333.804.567 1.605.7 2.405.106.62.16 1.405.16 2.357 0 .95.067 1.59.203 1.92.13.312.313.524.55.636.234.112.706.108 1.415-.01l.226.536zM184.508 521.66l-5.054-7.853-2.49.28c-.817.103-1.425.283-1.825.54-.543.35-.78.857-.717 1.525.04.396.394 1.194 1.065 2.393l-.53.34-4.752-7.384.53-.34c.62.73 1.327 1.203 2.12 1.412.79.21 2.167.22 4.128.033l20.484-1.96.21.324-10.66 18.163c-.997 1.735-1.532 2.972-1.606 3.71-.06.556.106 1.188.496 1.896l-.53.34-6.912-10.742.53-.34.287.446c.55.854 1.038 1.394 1.465 1.617.31.147.612.125.907-.064.165-.105.313-.25.447-.43.076-.09.33-.482.763-1.183l1.643-2.722zm.675-1.24l4.518-7.567-8.837.854 4.32 6.714zM227.94 548.31l-.46.43c-.764-.608-1.68-.932-2.75-.968-.773-.005-2.29.313-4.55.95l-18.995 5.348-.447-.477 7.1-19.068c.852-2.304 1.292-3.722 1.32-4.256s-.272-1.206-.896-2.014l.46-.432 8.656 9.23-.46.43-.297-.317c-.772-.823-1.394-1.302-1.864-1.436-.333-.107-.616-.052-.85.17-.154.143-.294.346-.422.61-.127.262-.426 1.022-.895 2.282l-4.474 11.926 10.986-3.143c1.317-.396 2.177-.682 2.577-.858s.707-.365.92-.566c.246-.228.39-.51.437-.84s-.02-.69-.192-1.08c-.232-.533-.67-1.142-1.31-1.823l.46-.43 5.944 6.333zM240.743 560.35l-5.682 7.418.423.323c1.332 1.022 2.574 1.396 3.727 1.124 1.153-.27 2.353-1.05 3.6-2.333l.596.457-7.304 9.533-.595-.456c.672-1.143 1.063-2.196 1.172-3.16.108-.966-.012-1.764-.362-2.394s-1.025-1.328-2.023-2.093l-3.92 5.116c-.775 1.012-1.2 1.665-1.273 1.96s-.032.62.126.97.538.757 1.14 1.218l1.25.957c1.958 1.5 3.832 2.31 5.62 2.43 1.79.117 3.557-.433 5.304-1.65l.576.44-5.39 5.048-18.11-13.875.382-.5.69.53c.616.47 1.18.754 1.697.85.362.083.73.03 1.1-.163.285-.134.777-.656 1.475-1.567l9.168-11.967c.63-.822.99-1.348 1.085-1.575.136-.39.127-.776-.027-1.158-.2-.56-.64-1.1-1.32-1.62l-.69-.53.382-.5 17.553 13.45-4.125 5.383-.595-.456c.71-1.537 1.012-2.8.906-3.79-.107-.988-.55-1.994-1.332-3.016-.45-.607-1.467-1.52-3.054-2.735l-2.17-1.664zM289.306 587.32c3.845 1.712 6.507 4.14 7.986 7.28 1.48 3.14 1.527 6.265.143 9.372-1.185 2.66-3.125 4.6-5.823 5.818-3.563 1.616-7.51 1.46-11.84-.47-4.333-1.93-7.115-4.7-8.348-8.315-.992-2.847-.87-5.658.366-8.433 1.384-3.107 3.757-5.156 7.122-6.148 3.363-.99 6.828-.693 10.394.895zm-.33 1.278c-2.197-.98-4.304-.745-6.325.7-1.654 1.178-3.15 3.27-4.49 6.274-1.594 3.58-2.048 6.542-1.36 8.886.48 1.654 1.627 2.886 3.44 3.692 1.222.545 2.355.735 3.4.572 1.335-.187 2.616-.872 3.842-2.058 1.225-1.186 2.356-2.942 3.393-5.27 1.236-2.774 1.86-4.98 1.877-6.622s-.308-2.945-.97-3.915-1.6-1.722-2.807-2.26zM310.427 596.5l13.13 3.622-.167.607-.653-.18c-.995-.276-1.7-.373-2.116-.29-.415.08-.743.255-.984.522-.242.268-.537 1.035-.887 2.304l-2.983 10.808c-.547 1.983-.74 3.343-.573 4.078.165.735.582 1.424 1.25 2.065s1.608 1.13 2.82 1.465c1.37.377 2.613.43 3.734.158 1.12-.27 2.052-.813 2.794-1.624s1.438-2.392 2.086-4.74l2.485-9.006c.27-.985.346-1.724.222-2.215-.124-.49-.342-.867-.655-1.128-.49-.41-1.247-.758-2.272-1.04l.167-.608 8.792 2.425-.167.607-.513-.142c-.715-.197-1.345-.236-1.888-.118-.544.12-.993.398-1.35.837-.25.308-.502.913-.75 1.817l-2.313 8.38c-.718 2.603-1.434 4.425-2.147 5.462-.713 1.037-1.965 1.83-3.757 2.382s-4.01.462-6.652-.267c-2.207-.61-3.838-1.336-4.894-2.18-1.455-1.155-2.37-2.37-2.747-3.643-.378-1.272-.313-2.827.193-4.662l2.982-10.808c.35-1.27.486-2.08.41-2.436s-.29-.683-.634-.98c-.343-.3-1.054-.59-2.13-.872l.167-.604zM352.8 618.98l-.822 6.35c-.16 1.235-.173 2.024-.038 2.366.134.343.405.635.813.878.408.244 1.21.443 2.41.6l-.08.624-13.388-1.734.08-.625c1.2.154 2.03.163 2.486.024.458-.138.794-.353 1.01-.642.217-.29.406-1.052.566-2.288l1.91-14.74c.16-1.236.172-2.022.037-2.357-.136-.335-.41-.628-.825-.88-.415-.25-1.214-.453-2.397-.606l.082-.624 12.165 1.576c3.167.41 5.458.9 6.872 1.472 1.413.572 2.518 1.428 3.314 2.568.795 1.14 1.104 2.397.926 3.77-.218 1.68-1.093 2.98-2.627 3.896-.97.58-2.277.94-3.92 1.08l5.29 8.497c.702 1.107 1.213 1.81 1.533 2.104.483.414 1.066.68 1.75.797l-.08.625-8.254-1.07-7.08-11.438-1.73-.225zm1.446-11.162l-1.29 9.953 1.105.145c1.793.23 3.15.263 4.075.094.925-.17 1.687-.594 2.287-1.272s.977-1.613 1.132-2.807c.225-1.734-.073-3.075-.894-4.02-.82-.946-2.27-1.555-4.35-1.824l-2.064-.268zM409.356 620.626l.57 7.074c.094 1.172.225 1.898.394 2.18.168.28.478.513.93.694.45.182 1.047.242 1.786.183l.868-.07.05.628-13.745 1.106-.052-.626.87-.07c.754-.06 1.355-.23 1.803-.503.326-.18.57-.467.732-.858.106-.29.113-1.007.02-2.15l-1.21-15.026c-.093-1.173-.22-1.896-.38-2.17-.16-.275-.466-.508-.917-.696-.452-.188-1.048-.252-1.788-.193l-.868.07-.052-.628 13.746-1.107.05.628-.867.07c-.756.062-1.357.23-1.805.504-.325.18-.568.475-.73.88-.122.277-.138.987-.046 2.132l.52 6.467 9.285-.747-.52-6.468c-.095-1.172-.222-1.895-.38-2.17-.16-.275-.47-.507-.93-.694s-1.062-.252-1.8-.192l-.845.068-.05-.628 13.745-1.106.05.628-.867.07c-.772.062-1.374.23-1.805.503-.325.18-.568.475-.73.88-.123.277-.14.987-.046 2.132l1.21 15.025c.094 1.172.225 1.898.394 2.18.168.28.478.513.93.694.45.18 1.047.24 1.786.182l.868-.07.05.628-13.745 1.106-.05-.628.844-.067c.77-.062 1.38-.23 1.827-.504.31-.18.553-.466.73-.86.107-.29.114-1.006.022-2.15l-.57-7.073-9.284.743zM445.99 604.934l2.03 9.12.52-.115c1.638-.365 2.724-1.077 3.256-2.135.533-1.058.71-2.477.527-4.258l.73-.163 2.61 11.723-.73.163c-.444-1.25-1-2.226-1.67-2.93-.67-.705-1.357-1.125-2.065-1.262-.708-.136-1.676-.068-2.903.205l1.4 6.292c.277 1.243.505 1.988.684 2.235s.452.423.822.526c.37.104.925.074 1.665-.09l1.535-.343c2.41-.536 4.233-1.45 5.474-2.745s1.955-3.002 2.144-5.123l.71-.158.4 7.375-22.27 4.956-.136-.614.85-.19c.756-.167 1.336-.418 1.74-.752.298-.224.492-.54.583-.947.08-.305-.003-1.018-.252-2.138l-3.275-14.715c-.226-1.01-.396-1.626-.51-1.844-.212-.354-.513-.596-.905-.724-.558-.206-1.254-.216-2.088-.03l-.85.19-.138-.616 21.583-4.805 1.474 6.62-.73.163c-.723-1.53-1.496-2.574-2.32-3.13-.827-.555-1.883-.86-3.168-.92-.755-.046-2.108.147-4.06.582l-2.67.596zM481.89 606.364l2.248 5.997c.438 1.168.796 1.87 1.075 2.11.278.238.655.37 1.13.395.474.023 1.277-.177 2.41-.6l.22.59-12.64 4.736-.222-.59c1.134-.424 1.87-.804 2.208-1.14.34-.337.536-.684.593-1.04.056-.358-.135-1.12-.57-2.287l-5.218-13.92c-.437-1.166-.794-1.866-1.07-2.1-.277-.23-.657-.36-1.142-.39-.484-.027-1.285.168-2.402.586l-.22-.59 11.484-4.305c2.99-1.12 5.244-1.76 6.762-1.917 1.517-.157 2.894.08 4.13.717 1.237.635 2.1 1.602 2.586 2.898.595 1.587.43 3.144-.497 4.67-.586.968-1.572 1.898-2.96 2.792l8.655 5.03c1.14.65 1.918 1.03 2.34 1.142.62.14 1.26.103 1.92-.114l.22.59-7.792 2.92-11.613-6.792-1.632.614zm-3.948-10.538l3.52 9.398 1.043-.39c1.69-.635 2.906-1.243 3.644-1.826s1.212-1.313 1.425-2.193.108-1.883-.314-3.01c-.612-1.64-1.504-2.684-2.672-3.136-1.168-.452-2.734-.31-4.697.426l-1.948.73zM524.16 598.004l.293.56-12.24 6.4-.293-.557.772-.404c.686-.358 1.18-.752 1.485-1.18.23-.293.334-.648.316-1.065-.002-.315-.268-.98-.8-2l-6.987-13.357c-.545-1.04-.948-1.655-1.21-1.842s-.637-.28-1.127-.275c-.49.003-1.064.177-1.722.52l-.77.405-.293-.56 12.24-6.4.293.557-.77.404c-.688.357-1.183.75-1.486 1.18-.23.292-.338.657-.328 1.095-.006.303.258.963.79 1.98l6.986 13.357c.545 1.042.953 1.657 1.226 1.847s.65.278 1.138.27c.486-.01 1.06-.187 1.716-.53l.77-.406zM541.576 560.115l3.542 5.106-.577.4c-1.157-.934-2.12-1.517-2.89-1.75-.772-.232-1.624-.245-2.56-.04-.53.113-1.3.52-2.308 1.218l-1.63 1.13 10.074 14.527c.67.966 1.152 1.526 1.445 1.68.295.155.683.197 1.164.127.48-.07 1.033-.32 1.656-.752l.716-.497.358.518-11.37 7.888-.36-.518.716-.496c.637-.44 1.08-.893 1.328-1.355.19-.32.257-.69.2-1.11-.04-.314-.387-.94-1.04-1.885l-10.075-14.527-1.57 1.09c-1.46 1.01-2.33 2.017-2.62 3.017-.408 1.39-.256 2.87.457 4.436l-.597.415-3.54-5.107 19.483-13.513zM571.033 555.707l-6.728 6.476.756 2.39c.26.782.555 1.344.885 1.687.446.464.99.6 1.635.407.382-.114 1.096-.617 2.142-1.507l.437.453-6.328 6.09-.437-.453c.598-.75.924-1.535.976-2.353.054-.818-.202-2.17-.765-4.058l-5.884-19.72.28-.27 19.88 6.946c1.897.644 3.214.93 3.952.86.557-.05 1.145-.334 1.765-.854l.437.454-9.203 8.858-.437-.454.384-.37c.732-.703 1.167-1.286 1.304-1.75.084-.33.005-.624-.238-.876-.136-.14-.306-.26-.51-.354-.1-.06-.536-.23-1.307-.52l-2.992-1.083zm-1.346-.423l-8.3-2.97 2.548 8.506 5.752-5.536zM587.965 508.465l6.57 4.707-.408.57c-2.305-.58-4.43-.496-6.38.252-1.946.748-3.52 1.96-4.724 3.64-1.146 1.6-1.71 3.214-1.69 4.845.02 1.63.57 3.17 1.65 4.62s2.36 2.7 3.84 3.76c1.787 1.28 3.525 2.16 5.216 2.636 1.688.477 3.242.4 4.66-.232s2.655-1.688 3.717-3.17c.366-.512.695-1.074.988-1.688.294-.613.556-1.273.787-1.98l-3.875-2.776c-.74-.53-1.26-.813-1.56-.85-.302-.037-.666.063-1.096.302-.428.238-.83.62-1.206 1.145l-.395.55-.513-.366 7.467-10.423.513.367c-.52.82-.816 1.434-.895 1.844-.08.41-.015.818.193 1.226.096.227.485.585 1.168 1.074l3.874 2.775c-.453 1.738-1.074 3.446-1.862 5.124-.788 1.677-1.756 3.315-2.9 4.915-1.457 2.032-2.91 3.55-4.36 4.555s-2.936 1.74-4.453 2.212c-1.517.47-2.977.64-4.38.507-1.79-.17-3.463-.813-5.02-1.93-2.812-2.014-4.37-4.846-4.673-8.496-.305-3.648.773-7.19 3.234-10.627.77-1.075 1.535-1.985 2.293-2.732.397-.408 1.14-1.013 2.228-1.81 1.09-.8 1.698-1.29 1.83-1.473.216-.302.32-.647.317-1.038-.005-.39-.194-.878-.567-1.463l.41-.572zM598.813 491.674l8.497 3.886.222-.483c.697-1.525.785-2.82.264-3.884s-1.548-2.06-3.077-2.99l.31-.682 10.923 4.996-.312.682c-1.263-.4-2.377-.546-3.343-.438-.965.108-1.716.404-2.252.886-.535.482-1.065 1.295-1.59 2.44l5.863 2.68c1.158.53 1.89.798 2.195.804.305.007.61-.106.917-.34.306-.23.616-.69.932-1.382l.654-1.43c1.026-2.244 1.397-4.25 1.114-6.02-.283-1.77-1.214-3.37-2.79-4.802l.3-.66 6.124 4.13-9.488 20.748-.573-.263.362-.79c.322-.705.473-1.318.45-1.844 0-.372-.134-.717-.403-1.035-.194-.248-.813-.61-1.857-1.088l-13.71-6.27c-.94-.43-1.534-.666-1.777-.707-.41-.045-.784.05-1.123.285-.5.32-.93.87-1.284 1.647l-.36.792-.573-.263 9.195-20.11 6.168 2.82-.313.683c-1.656-.35-2.954-.362-3.896-.04-.94.325-1.82.98-2.643 1.97-.493.574-1.155 1.77-1.986 3.59l-1.137 2.484z"/></g><g fill="#FFC20F"><path d="M136.706 288.297l13.063 3.302-.263 1.035c-2.592-.312-4.735-.223-6.428.268-1.693.49-3.18 1.427-4.46 2.806-1.28 1.38-2.136 2.92-2.566 4.624-.483 1.912-.298 3.65.557 5.213.855 1.564 2.032 2.535 3.53 2.914 1.15.292 2.3.154 3.45-.414 1.696-.796 4.24-3.056 7.633-6.78 2.78-3.047 4.84-5.086 6.18-6.12 1.34-1.034 2.782-1.723 4.327-2.067 1.545-.346 3.067-.33 4.564.05 2.857.722 5.042 2.45 6.557 5.186 1.516 2.735 1.833 5.842.954 9.32-.28 1.104-.623 2.12-1.028 3.047-.238.553-.88 1.66-1.923 3.318-1.045 1.66-1.628 2.732-1.75 3.216-.116.46-.07.858.14 1.193.21.334.735.68 1.575 1.04l-.253 1.003-12.924-3.268.254-1.002c2.817.198 5.003.06 6.558-.418 1.554-.477 2.988-1.443 4.3-2.9 1.312-1.458 2.22-3.19 2.728-5.192.582-2.303.434-4.283-.447-5.94-.88-1.655-2.16-2.695-3.843-3.12-.92-.234-1.918-.216-2.99.05-1.074.27-2.15.843-3.23 1.72-.733.575-2.412 2.246-5.036 5.013-2.624 2.768-4.65 4.7-6.08 5.796-1.428 1.097-2.882 1.832-4.362 2.205-1.48.374-2.99.365-4.534-.025-2.718-.688-4.795-2.315-6.23-4.883s-1.743-5.464-.928-8.69c.506-2.003 1.538-3.996 3.093-5.98.723-.92 1.14-1.6 1.25-2.036.116-.46.07-.883-.14-1.267s-.728-.778-1.557-1.184l.26-1.036zM182.278 248.713l-6.94 13.34 4.222 5.17c1.02 1.28 1.87 2.096 2.543 2.447.527.274 1.123.263 1.786-.035s1.48-1.25 2.452-2.86l.95.493-5.658 10.874-.95-.493c.494-1.565.65-2.663.468-3.293-.373-1.292-1.528-3.11-3.468-5.46l-22.112-26.927.477-.917 34.992 2.942c2.79.247 4.735.154 5.83-.28 1.097-.434 2.055-1.334 2.874-2.703l.95.493-7.09 13.625-.948-.494c.66-1.424.92-2.474.775-3.15-.143-.678-.5-1.165-1.07-1.46-.736-.385-2.082-.656-4.035-.815l-6.05-.497zm-2.26-.292l-16.986-1.406 10.82 13.26 6.167-11.853zM212.657 195.342c2.205-1.633 4.22-2.53 6.044-2.694 2.546-.223 4.77.507 6.676 2.19 1.46 1.29 2.448 2.98 2.964 5.07.516 2.09.373 4.197-.43 6.325s-2.652 4.83-5.546 8.104l-12.177 13.776-.8-.708.967-1.095c1.085-1.228 1.48-2.447 1.188-3.658-.215-.76-1.142-1.865-2.78-3.313l-18.828-16.644c-1.816-1.605-3.137-2.407-3.96-2.407-1.146.002-2.206.555-3.18 1.66l-.97 1.094-.8-.708 11.14-12.602c2.076-2.35 3.92-4.078 5.536-5.188 2.42-1.697 4.784-2.532 7.09-2.506s4.317.795 6.026 2.306c1.46 1.29 2.375 2.893 2.746 4.805.37 1.915.07 3.978-.905 6.192zm-11.134 10.228c.563-.42 1.174-.952 1.833-1.59.66-.638 1.35-1.366 2.074-2.185 1.84-2.083 3.002-3.854 3.484-5.314.482-1.46.503-2.883.064-4.27-.44-1.387-1.21-2.568-2.314-3.544-1.69-1.495-3.76-2.08-6.206-1.752-2.446.327-4.84 1.816-7.185 4.468-1.274 1.442-2.255 2.874-2.94 4.296l11.19 9.892zm13.94 12.323c1.856-1.31 3.5-2.773 4.93-4.393 2.298-2.6 3.465-5.094 3.502-7.487.038-2.392-.807-4.352-2.535-5.878-1.14-1.007-2.505-1.66-4.098-1.958-1.592-.297-3.304-.02-5.137.833-1.833.854-3.654 2.304-5.463 4.35-.787.89-1.44 1.667-1.964 2.33-.522.664-.914 1.213-1.173 1.65l11.94 10.553zM261.13 163.55l-12.372 8.547 1.314 6.543c.304 1.61.672 2.728 1.104 3.353.337.49.87.757 1.595.805.727.047 1.896-.413 3.507-1.382l.608.88-10.085 6.967-.608-.88c1.167-1.153 1.817-2.05 1.952-2.69.274-1.317.104-3.466-.513-6.448l-6.952-34.143.85-.587 29.556 18.964c2.352 1.522 4.114 2.35 5.285 2.478 1.17.13 2.44-.22 3.802-1.046l.608.88-12.637 8.73-.607-.88c1.25-.95 1.97-1.758 2.16-2.424.19-.665.102-1.262-.263-1.79-.473-.684-1.535-1.553-3.187-2.607l-5.115-3.27zm-1.86-1.313l-14.356-9.188 3.363 16.78 10.994-7.593zM298.547 134.847l16.948-6.258-3.864-10.467c-.682-1.85-1.247-3.035-1.69-3.555-.344-.38-.863-.62-1.557-.717-.945-.157-1.84-.08-2.688.233l-1.304.48-.37-1.002 15.61-5.763.372 1.003-1.304.48c-.847.314-1.582.826-2.206 1.537-.473.504-.702 1.083-.688 1.736.014.654.35 1.873 1.008 3.656l8.704 23.573c.683 1.85 1.243 3.024 1.68 3.52.343.38.854.635 1.536.764.958.127 1.86.035 2.708-.278l1.304-.482.37 1.003-15.61 5.765-.37-1.003 1.303-.48c1.47-.544 2.39-1.378 2.76-2.502.232-.744-.055-2.208-.86-4.393l-4.112-11.135-16.948 6.257 4.11 11.134c.684 1.85 1.244 3.024 1.68 3.52.344.38.867.63 1.57.75.936.137 1.828.048 2.675-.265l1.337-.495.37 1.003-15.644 5.776-.37-1.003 1.303-.48c1.492-.55 2.423-1.39 2.793-2.514.21-.735-.09-2.196-.896-4.38l-8.704-23.575c-.683-1.85-1.248-3.034-1.692-3.554-.342-.38-.85-.623-1.522-.73-.967-.15-1.874-.067-2.72.245l-1.305.482-.37-1.003 15.644-5.777.37 1.003-1.337.494c-.847.313-1.582.825-2.206 1.536-.45.496-.674 1.072-.672 1.73.002.658.333 1.878.99 3.662l3.865 10.47zM401.833 137.306l-13.558-33.397-1.163 25.994c-.106 2.374.088 3.87.584 4.486.652.838 1.75 1.29 3.292 1.36l1.353.06-.047 1.07-13.527-.606.048-1.068 1.39.062c1.636.074 2.82-.373 3.554-1.34.454-.573.73-1.952.827-4.137l1.136-25.388c.078-1.732-.056-2.987-.4-3.764-.238-.558-.71-1.042-1.416-1.455-.708-.412-1.856-.654-3.445-.725l.047-1.068 11 .492 12.77 31.078 15.21-29.826 11 .492-.05 1.068-1.352-.06c-1.66-.075-2.858.37-3.59 1.337-.433.6-.696 1.992-.794 4.176l-1.136 25.39c-.105 2.373.09 3.87.584 4.485.676.84 1.773 1.293 3.292 1.36l1.354.062-.048 1.068-16.482-.737.048-1.068 1.354.06c1.66.075 2.846-.372 3.555-1.34.455-.573.73-1.952.828-4.136l1.163-25.996-16.45 32.054-.927-.042zM482.86 114.583l.33-1.016 13.107 4.288-.332 1.016-1.39-.453c-1.467-.48-2.784-.236-3.95.732-.57.438-1.19 1.686-1.86 3.74l-4.912 15.008c-1.212 3.704-2.52 6.458-3.92 8.262-1.404 1.804-3.424 3.087-6.06 3.85-2.637.762-5.807.538-9.51-.673-4.04-1.322-6.877-3.025-8.507-5.11-1.63-2.082-2.498-4.454-2.603-7.114-.055-1.818.646-4.95 2.102-9.4l4.722-14.433c.746-2.28.925-3.88.537-4.793-.39-.915-1.282-1.6-2.682-2.06l-1.39-.453.333-1.017 15.985 5.23-.332 1.017-1.423-.465c-1.535-.503-2.79-.376-3.762.38-.666.508-1.34 1.8-2.02 3.878l-5.264 16.092c-.474 1.446-.884 3.137-1.23 5.074-.347 1.937-.34 3.54.02 4.807.36 1.27 1.078 2.454 2.155 3.556 1.076 1.103 2.552 1.96 4.426 2.573 2.417.79 4.752.966 7.008.53 2.255-.44 4.002-1.367 5.24-2.787 1.24-1.42 2.5-4.083 3.777-7.99l4.9-14.974c.76-2.327.984-3.854.673-4.58-.435-1.043-1.35-1.793-2.75-2.25l-1.42-.467zM541.652 141.68l-6.995 11.515-.914-.555c1.06-2.386 1.604-4.46 1.634-6.223.027-1.762-.43-3.458-1.37-5.087-.943-1.63-2.166-2.9-3.668-3.813-1.687-1.024-3.402-1.357-5.147-1-1.746.357-3.02 1.196-3.82 2.516-.618 1.016-.825 2.155-.62 3.42.263 1.855 1.675 4.952 4.238 9.29 2.096 3.552 3.44 6.12 4.034 7.705.594 1.584.828 3.166.703 4.744s-.59 3.027-1.39 4.348c-1.53 2.52-3.825 4.1-6.885 4.743-3.06.644-6.122.034-9.188-1.828-.975-.592-1.845-1.22-2.61-1.878-.46-.39-1.328-1.328-2.607-2.813-1.28-1.486-2.132-2.36-2.558-2.618-.407-.247-.802-.32-1.183-.217-.382.1-.868.5-1.458 1.198l-.885-.537 6.922-11.392.883.537c-1.017 2.635-1.526 4.766-1.527 6.392 0 1.625.502 3.28 1.51 4.962 1.006 1.682 2.394 3.06 4.16 4.132 2.03 1.233 3.966 1.673 5.808 1.318 1.842-.354 3.213-1.273 4.114-2.756.493-.812.77-1.77.83-2.875.058-1.105-.174-2.302-.696-3.593-.333-.87-1.437-2.965-3.31-6.286-1.875-3.32-3.126-5.825-3.754-7.513-.628-1.688-.903-3.294-.825-4.818.076-1.524.53-2.967 1.356-4.328 1.455-2.396 3.62-3.902 6.497-4.52 2.876-.615 5.735-.06 8.578 1.667 1.767 1.072 3.37 2.644 4.81 4.713.665.96 1.19 1.56 1.577 1.793.406.247.823.327 1.252.24s.957-.468 1.59-1.142l.912.556zM571.915 169.29l-10.583 11.135 6.174 5.867c1.618 1.538 2.924 2.32 3.916 2.345 1.33.05 2.798-.686 4.406-2.206l.775.738-9.33 9.818-.775-.736c1.12-1.558 1.757-2.625 1.91-3.2.233-.73.197-1.5-.11-2.316-.306-.815-1.053-1.788-2.24-2.917l-6.174-5.867-8.84 9.302c-1.194 1.258-1.867 2.07-2.018 2.434-.15.366-.157.76-.02 1.186.136.425.592 1.006 1.366 1.742l4.78 4.54c1.583 1.506 2.84 2.496 3.767 2.967.927.473 2.038.7 3.332.684 1.68-.043 3.793-.51 6.342-1.398l.827.786-9.155 4.772-21.724-20.644.738-.775.98.933c.672.638 1.456 1.088 2.355 1.35.643.187 1.26.133 1.85-.16.588-.292 1.53-1.12 2.822-2.48l17.434-18.345c1.685-1.774 2.552-3.048 2.6-3.823.023-1.026-.55-2.095-1.72-3.208l-.98-.933.735-.776 21.723 20.643-5.583 6.496-.8-.76c1.13-1.778 1.78-3.11 1.953-3.996.17-.887.05-1.804-.36-2.75-.37-.748-1.255-1.784-2.65-3.11l-7.723-7.338zM620.387 226.193l.897-.582 7.5 11.572-.896.582-.795-1.226c-.84-1.296-2.018-1.934-3.533-1.913-.72-.016-1.985.564-3.8 1.74l-13.25 8.59c-3.27 2.12-6.018 3.44-8.242 3.963s-4.602.25-7.132-.813-4.854-3.23-6.974-6.5c-2.313-3.567-3.45-6.674-3.408-9.32.04-2.645.856-5.034 2.446-7.17 1.1-1.448 3.613-3.445 7.542-5.992l12.74-8.26c2.016-1.305 3.158-2.435 3.432-3.39.272-.956.01-2.05-.793-3.287l-.793-1.226.896-.582 9.148 14.113-.895.583-.814-1.256c-.878-1.356-1.934-2.044-3.165-2.066-.838-.023-2.173.56-4.007 1.75l-14.207 9.208c-1.275.827-2.657 1.885-4.144 3.174s-2.488 2.54-3.005 3.752-.7 2.585-.557 4.12c.145 1.534.753 3.128 1.826 4.783 1.38 2.132 3.087 3.737 5.116 4.814 2.03 1.078 3.972 1.454 5.828 1.128 1.855-.326 4.51-1.606 7.96-3.843l13.22-8.57c2.053-1.33 3.187-2.378 3.4-3.14.318-1.082.076-2.242-.725-3.478l-.813-1.254zM610.502 295.037l26.85-24.048-24.858 7.69c-2.27.702-3.612 1.39-4.024 2.066-.568.896-.624 2.083-.168 3.558l.4 1.293-1.02.316-4.004-12.936 1.02-.316.412 1.33c.484 1.565 1.305 2.53 2.462 2.893.694.233 2.085.026 4.174-.62l24.28-7.512c1.655-.512 2.79-1.062 3.405-1.65.446-.41.743-1.02.893-1.823.148-.805-.012-1.968-.482-3.488l1.022-.317 3.255 10.52-24.933 22.52 33.21 4.234 3.256 10.52-1.02.315-.4-1.293c-.492-1.59-1.316-2.566-2.474-2.93-.71-.202-2.108.02-4.197.666l-24.28 7.513c-2.27.7-3.61 1.39-4.024 2.065-.562.92-.617 2.105-.167 3.558l.398 1.294-1.02.316-4.877-15.76 1.022-.317.4 1.294c.49 1.588 1.312 2.553 2.462 2.893.693.233 2.085.026 4.174-.62l24.857-7.692-35.728-4.647-.275-.886z"/></g><path fill="#ED1B24" d="M193.167 365.167h109.666l45-45v-109L381.667 245v54.167h21.5V243.5l32.166-32.166v109.833l44.75 44.75H592.5l-31.458 31.458h-89.21L405.23 330.77H381.5l-66.864 66.866H224.5M214.5 420.5h99.667l66.333 66.333V529.5l-76.833-76.834h-57.5M403.167 487.167v43.666l77.667-77.667H537.5l31.666-31.666h-100"/><path d="M421.063 450.688l-20.375-20.375L414 417l7.156 7.156 31.72-31.72h-13.94l-17.5 17.5-20.312-20.312 4.25-4.25 11.438 11.438 22.688-22.688-9.25-9.25h-13.875l9.188 9.188-8.875 8.875-4.75-4.75 4.188-4.188-22.75-22.75-22.813 22.812 4.188 4.188L371 382l-8.813-8.813 8.563-8.563H357.5l-9.625 9.5 22.75 22.75 10.938-10.938 4 4-19.844 19.844-17.845-17.844h-14.313L366.625 425l6.75-6.75 12.375 12.375-20.28 20.28-4.595-4.593h-13.063l18.875 18.875 27.563-27.563 27 27 18.125-18.125H425.25l-4.187 4.188zM385 374.125l8.75-8.75 8.313 8.938-8.438 8.438-8.625-8.625zm8.625 49.25l-13.25-13.25 13-13 13.5 13-13.25 13.25z"/></svg>