<svg xmlns="http://www.w3.org/2000/svg" width="800" height="800"><circle fill="#04FE09" stroke="#1709FF" stroke-width="10" cx="396.834" cy="388.499" r="266.667"/><path fill="#FFF" stroke="#B7B7B7" stroke-width="3" d="M204.333 382.833v-132H366v131.834h-59.167l-4-7.167 3.167-8.333-8.167-10.834 14-1.333 7-4.667-4.333-9.5-9.5-5.333-5.5-6.167h-4.833l-4 6L283.5 337l-.333-9 8.666-.333 29.667 1 2.333-4.5L317 317l-5.167-7.5L305 296.333l-5.167-4.666-3-13.5-1.5-2.167-4.333-6-15 6.667-13.333 14.666-12.5 11.5-5 5.5-9 4.334-1 7 8 1.333 7.5 1.333 12.333-1 9.5-2.833-.5 7.167-7.5 4.5-14 .666-8.333 3-6 3.5L234 349.167l7.667 2.666 16.666-1.166 11-.5 6.5 3.666 7.334 5.667 2.666 6-.833 4.667-3.5 5.666-4.667 6.667z"/><path fill="#0000FE" stroke="#025480" d="M204.167 458.167v-61.333h164.667V458.5s-21.333-8.666-29.333-18.666-18.666-24-18.666-24-2.333 3.333-8.333 4.333-16.332-3.334-18.666.333-2.667 7-9.667 8.667-16-5-20.667-2-10 11-19.667 18-10.667 13.667-16.333 13.667-23.333-.667-23.333-.667zM204.5 472.5h164v56l-164 .334z"/><path fill="#0000FE" stroke="#025480" d="M369.667 407.25c-1.333-.75-.833-10.417-.833-10.417l92.917.083 20.918 23.75s-10.604 6.55-27.167 8.833c-24.165 3.332-37.748 1.333-50.082-3-7.518-2.642-26.265-13.912-35.75-19.25z"/><path fill="#0000FE" stroke="#025480" d="M455.084 435.584c17.25-3.527 31.75-9.75 31.75-9.75l22.333 20s-24.333 25-69 20.666-71.333-28-71.333-28l-.333-25.666s30.125 19.91 47.5 22.333c10.167 1.417 24.637 3.372 39.084.417z"/><path fill="#1709FF" stroke="#025480" d="M514.75 450.875L545 478.25s-36.75 23.5-72.25 21.5-50-14.5-70-21.5-34.25-5.75-34.25-5.75l.625-25.75s14.625 10.375 28.375 15.875S416.25 473.75 444 473s70.75-22.125 70.75-22.125z"/><path fill="#1709FF" stroke="#025480" d="M549.125 481.75l29.375 29.125S549.25 528.75 521 529.75 474.75 532 462 527s-20.75-19.75-35.5-24.5-33.5-4-39-6-18.625-15.875-18.625-15.875 22.25-4 36.5 2.25 29.5 19.125 39 20.875 34.625 10 62.125.25 42.625-22.25 42.625-22.25z"/><path fill="#1709FF" stroke="#025480" d="M383.5 503.875S403.25 516.25 413 522.5s40.75 6.875 40.75 6.875S445.5 519 427.5 511s-44-7.125-44-7.125z"/><path fill="#1709FF" stroke="#025480" stroke-width="3" d="M598.5 528.25s-12.25-12.375-17.5-12.625S548.75 529 548.75 529l49.75-.75z"/><path fill="#FFF" stroke="#B7B7B7" stroke-width="3" d="M366 382.667h131.167l49.25-49.25h-29.584l-16.375 16.375h-35.625l-8.854 8.854h-11.813l8.572-8.573H411.5l-7.713 7.714h-10.954l7.477-7.476h-33.477z"/><path fill="#FFF" stroke="#B7B7B7" stroke-width="3" d="M532.833 310.5L499.5 343.833h-33.333L498 310.5zM489.833 310.167L456.5 344.833l-44-.166 34.25-33.917zM437.833 310.5l-36 36-32.583.25 34.916-35.25zM395.5 310.833L366 337.5l.75-26.25zM365.833 304.833H398.5L422.333 281h-29.5zM432.5 281.167L409.167 304.5h38.666l22.833-22.833zM477.167 281.167L454.334 304H496.5l23.25-22.75zM526.833 281.5l-22.167 22.167h35.5l21.418-21.417zM554.667 251.333L530.5 275.5h34.833l26.167-25.25zM507.167 249.5l-26 26h41.666L548 250.333zM462.5 249.833l-25.5 25.5h34.167l25.916-25.916zM421.5 249.833l-24.5 24.5 30.5.917 26-25.75z"/></svg>