<svg xmlns="http://www.w3.org/2000/svg" width="800" height="800"><path fill="#EFA01E" d="M158.5 476.5s85.333 45.334 121.333 51.334 25.333 7.333 58 5.333 161.333-52 161.333-52S395.39 539.874 340.5 541.834c-93.333 3.333-205.333-70-205.333-70"/><path fill="#2E3785" d="M655 179c-1-10.5-14.5-16.5-27.5-20s-51-2-97 9-220 93.5-249.5 112-112 84.5-137 116.5-22.5 57-22.5 57c8 26 34 26.5 68.5 22s85-9.5 208.5-70.5 187-121 222.5-156.5 35-59 34-69.5zm-11.5 29.5c-7 11.5-42.5 73-198 155.5S242 448 206 451.5s-42.5-19-42.5-19c-2-22 6.5-36 29-64s39-51.5 94.5-86 166-87 223.5-101 75-19.5 97.5-19 32.5 8.5 38.5 13 4 21.5-3 33z"/><path fill="#EFA01E" d="M540.5 186.5c-17.333-4.667-53.333-2-107.333 17.333s-153.333 80-153.333 80C228.5 314.5 187.75 368.25 194.5 385.167c4 5.833 21.445 21.805 67.333 10.667 68.667-16.667 98.428-39.24 119.333-48C451.166 318.5 522.5 259.167 540.5 232.5s17.333-41.333 0-46zm4.667 23.333c-1.334 4-9.335 32-77.334 75.333-68 43.333-112 64-137.333 71.333s-90.667 36-99.333 14c-4.33-10.992-4-28 12.667-45.334s25.333-24 38-33.333 130-74.667 155.333-83.333 86-24 102-16.667 7.334 14 6 18z"/><path fill="#EFA01E" d="M283.167 317.833s-12.667-72 43.333-101.333 128-14 126.667 2.667-34.667 48-70.667 66-78 40.666-99.333 32.666z"/><path fill="none" stroke="#EFA01E" stroke-width="3" d="M498.5 372.833l18.667-10.667-8 90.667 24.333-26 5.334.333.333 18-34.333 35.334s-.334 2.334-5.667.667-8.333-7.333-8.333-7.333l7.666-101zM557.167 331.5l17.667-11-2.667 34 25-51 4.333 19.333-25.666 47 27.333 29.334-12 20-23-31.334-2.333 40L549.5 442.5zM646.834 258.833s-21.334 19.667-28.334 35-11 32-7.666 40 8 9.333 12 8.667 30.334-20.667 27-11-9.334 37-22.667 34-13-6.666-16.667-6.333-4.332 3.667-4.666 6-2.333 25.666 6 29.333 5.334 2.333 10 1.333 23-23.333 33-40.333 17-29 14.333-38.667-8.597-10.737-11.333-11c-17.334-1.667-38 21.667-31 2.667s22.333-31.333 21.333-26-1 8.667 4.667 9.333 14-13.667 13.666-23-2.667-10.667-6-11.333-13.666 1.333-13.666 1.333z"/></svg>