<svg width="184.94" height="71.915" inkscape:version="0.92.1 r15371" sodipodi:docname="tourism-malaysia.svg" version="1.1" viewBox="0 0 184.94205 71.915329" xmlns="http://www.w3.org/2000/svg" xmlns:inkscape="http://www.inkscape.org/namespaces/inkscape" xmlns:sodipodi="http://sodipodi.sourceforge.net/DTD/sodipodi-0.dtd">
 <sodipodi:namedview bordercolor="#666666" borderopacity="1" gridtolerance="10" guidetolerance="10" inkscape:current-layer="g20" inkscape:cx="129.15303" inkscape:cy="6.5048917" inkscape:pageopacity="0" inkscape:pageshadow="2" inkscape:window-height="1137" inkscape:window-maximized="1" inkscape:window-width="1920" inkscape:window-x="-8" inkscape:window-y="-8" inkscape:zoom="5.0675987" objecttolerance="10" pagecolor="#ffffff" showgrid="false"/>
 <g transform="translate(-3.907 -10.727)" clip-rule="evenodd" fill-rule="evenodd">
  <path d="m3.907 10.727h184.94v71.915h-184.94z" fill="none" stroke-width=".93687" inkscape:connector-curvature="0"/>
  <path d="m117.18 45.687s4.2447-10.115 15.001-18.739c-1.6388 0.247-2.5311 0.21315-4.2063-0.49674-1.1542-0.49674-2.011-3.5128-4.4673-4.7908-0.96713-0.49674-1.7481 0-3.053 1.3484-1.0036 1.0996-5.8048 9.4755-3.2756 22.678z" fill="#cc2229" stroke-width=".93687" inkscape:connector-curvature="0"/>
  <path d="m180.69 60.448c0 0.78124-0.2226 1.5259-0.63325 2.2001a4.3559 4.1532 0 0 1 -1.6752 1.632 4.6707 4.4532 0 0 1 -2.344 0.56718 4.6409 4.4249 0 0 1 -2.3085 -0.56718 4.3655 4.1623 0 0 1 -1.6733 -1.632c-0.41064-0.67421-0.63324-1.4198-0.63324-2.2001s0.2226-1.5259 0.63324-2.2001a4.5219 4.3115 0 0 1 1.6733 -1.5972c0.7455-0.39062 1.49-0.60377 2.3085-0.60377 0.8568 0 1.6004 0.21315 2.344 0.60377a4.5123 4.3023 0 0 1 1.6752 1.5972c0.41065 0.67421 0.63325 1.4198 0.63325 2.2001zm-0.89422 0c0-0.95871-0.37131-1.8113-1.1168-2.5203-0.70617-0.67421-1.6004-1.0292-2.6424-1.0292a3.598 3.4305 0 0 0 -2.6049 1.0292c-0.7455 0.70988-1.1168 1.5616-1.1168 2.5203 0 0.99347 0.37131 1.8113 1.1168 2.5194 0.70616 0.70988 1.6004 1.0301 2.6049 1.0301 1.042 0 1.9362-0.32018 2.6424-1.0301 0.74646-0.70897 1.1168-1.5259 1.1168-2.5194zm-5.8431-2.3419h2.2317c0.59487 0 1.0813 0.10612 1.3413 0.35494 0.29743 0.24883 0.40873 0.56901 0.40873 0.96054 0 0.31835-0.0748 0.60194-0.29744 0.81417-0.22355 0.24974-0.55936 0.42721-1.0055 0.49857 0.18517 0.07044 0.29743 0.17656 0.40873 0.247 0.11226 0.10703 0.25905 0.24883 0.37419 0.46197 0.0365 0.03659 0.29743 0.46197 0.81842 1.385h-1.4517c-0.48356-0.92395-0.781-1.4545-0.96713-1.6329-0.15064-0.17839-0.29935-0.24883-0.48453-0.24883h-0.14967v1.8817h-1.2281zm1.2281 1.9879h0.52098c0.37419 0 0.63325-0.07135 0.781-0.17747a0.61405 0.58547 0 0 0 0.1871 -0.4263c0-0.17656-0.0384-0.32018-0.1871-0.4263-0.14775-0.10612-0.37131-0.14088-0.70616-0.14088h-0.59486z" stroke-width=".93686" inkscape:connector-curvature="0"/>
  <path d="m154.93 16.654c0-0.99347 0.8568-1.8113 1.8997-1.8113 1.0429 0 1.8978 0.81692 1.8978 1.8113 0 0.99439-0.85392 1.8113-1.8997 1.8113a1.9064 1.8177 0 0 1 -1.8978 -1.8113zm5.1389-0.63853c0-0.99347 0.85392-1.8113 1.8997-1.8113 1.041 0 1.8978 0.81692 1.8978 1.8113a1.9074 1.8186 0 0 1 -1.8997 1.8113 1.9055 1.8168 0 0 1 -1.8978 -1.8113zm5.0237 0.49674c0-0.99347 0.8568-1.8113 1.8997-1.8113 1.041 0 1.8978 0.81783 1.8978 1.8113 0 0.99347-0.8568 1.8113-1.8997 1.8113-1.041 0-1.8978-0.81692-1.8978-1.8113zm-51.256 25.34s-1.4526-12.563 6.0657-21.932c-1.8997 0.28359-3.1259 0.17747-4.9124-0.49674-1.4142-0.49674-1.7491-1.8113-3.2391-1.9522-1.5639-0.17656-3.0895-0.247-3.7592 1.4911-0.70616 1.9174-2.4562 7.2397 5.845 22.892z" fill="#cc2229" stroke-width=".93686" inkscape:connector-curvature="0"/>
  <g fill="#41509e">
   <path d="m55.432 18.925h3.4617c3.0156-0.07044 5.1744 0.24883 6.2538 0.64036 2.0849 0.74465 4.1324 4.188 3.3504 7.4172-0.44711 1.8113-1.6004 2.7334-2.7536 3.7964 0.78004 1.3493 2.4562 4.0114 3.3485 6.7787h-3.9818s-2.3459-5.358-4.9144-8.7656c1.7865 0.32018 4.2437 0.10612 4.6898-2.3071 0.59486-3.3363-2.4562-4.4368-4.5411-4.2236-0.59487 0.07135-1.0046-0.07136-1.3778 0.07135-0.03838 4.8978-0.1113 13.344 0.22355 15.226h-3.7975s0.25905-0.92395 0.25905-1.7747c0.07676-8.235 0.03838-10.399-0.07388-13.878 0.0019-1.0639-0.07292-1.8095-0.1468-2.9822zm14.889 0c0.07484 1.1728 0.11226 1.9174 0.14872 2.9822 0.07484 3.4781 0.14872 5.6425 0.03838 13.878 0 0.85076-0.26097 1.7747-0.26097 1.7747h3.7966c-0.48357-2.6987-0.55841-17.497-0.29744-18.598zm13.438 0.56901-0.03838 4.0818c0-1.7034-2.8649-2.3071-4.354-1.4911-0.81938 0.46197-1.1897 2.1653 0.63324 3.5128 2.2327 1.5982 4.4289 2.0583 5.0986 4.5786 0.70712 2.5889-0.37227 5.358-2.4178 6.4951-2.5694 1.4179-5.8076 0.85076-7.6325 0.17656v-3.6199c1.0794 0.53241 2.8669 1.4911 4.7273 0.99347 2.6059-0.74465 2.3075-2.8395 1.6752-3.6912-1.4526-1.8808-3.2756-2.2358-4.8021-3.8696-1.9362-2.0931-1.2665-4.542 0.1113-6.1749 1.752-2.0583 5.064-1.6668 7.0002-0.99256zm2.4946 18.349v-18.525s6.0667 2.1992 9.6407 8.8004c3.3869-6.1749 9.3806-8.8004 9.3806-8.8004v18.525h-3.1624v-12.103s-5.0257 4.9692-6.0312 11.783c-1.3394-6.7787-6.5147-12.066-6.5147-12.066v12.386zm-32.161-18.278v11.357c0 2.4846-0.48453 4.3297-1.49 5.5364-1.042 1.2075-2.5311 1.8461-4.5785 1.8461-2.0839 0-3.6095-0.63853-4.615-1.8461-1.0046-1.2075-1.5255-3.0518-1.5255-5.5364v-11.357h3.0146v10.753c0 1.4911 0.25905 2.6255 0.74454 3.372 0.52099 0.78215 1.302 1.1709 2.3449 1.1709 1.0046 0 1.7875-0.3897 2.3085-1.1709 0.5584-0.74373 0.81938-1.8799 0.81938-3.371v-10.754zm-38.752 18.81v-16.148h-3.2746v-2.6621h10.124v2.6621h-3.4982v16.148zm25.387-9.6182c0 1.3137-0.22355 2.5203-0.70808 3.6555-0.48453 1.1344-1.1542 2.1653-2.0475 3.0518-0.93068 0.88736-1.9362 1.5616-3.1278 2.0583-1.1897 0.46106-2.3814 0.70988-3.6459 0.70988-1.2665 0-2.4581-0.247-3.6488-0.70988a9.8479 9.3895 0 0 1 -3.0895 -2.0583c-0.93068-0.88736-1.6004-1.9165-2.0849-3.0518-0.48453-1.1344-0.70712-2.3785-0.70712-3.6555 0-1.2771 0.22355-2.4846 0.70712-3.6199a9.656 9.2065 0 0 1 2.0849 -3.0865c0.8923-0.85076 1.9352-1.5616 3.0895-2.0217a9.4065 8.9687 0 0 1 3.6479 -0.70988c1.2665 0 2.4946 0.247 3.6479 0.70897 1.1897 0.46106 2.2336 1.1709 3.1278 2.0217 0.8923 0.88736 1.562 1.9174 2.0465 3.0527 0.48453 1.1344 0.70712 2.3785 0.70712 3.6555zm-9.5303 6.2819a6.1981 5.9096 0 0 0 2.4562 -0.49674c0.82034-0.28359 1.49-0.74556 2.1223-1.3493 0.63324-0.60377 1.1168-1.2771 1.4142-2.0217a6.3775 6.0807 0 0 0 0.52195 -2.3785c0-0.85259-0.18614-1.6695-0.52099-2.4151-0.33389-0.78032-0.78004-1.4545-1.4133-2.0583a6.6615 6.3515 0 0 0 -2.0849 -1.3475c-0.781-0.28359-1.6378-0.46106-2.4946-0.46106-0.8923 0-1.7117 0.17747-2.4927 0.46106a6.6778 6.367 0 0 0 -2.0849 1.3484 6.508 6.2051 0 0 0 -1.4517 2.0583 7.1029 6.7723 0 0 0 -0.48453 2.4132c0 0.816 0.18614 1.632 0.48453 2.3785a6.7565 6.442 0 0 0 1.4517 2.0217 7.028 6.7009 0 0 0 2.0849 1.385c0.78196 0.28359 1.6004 0.46197 2.4946 0.46197zm25.349 29.671c1.6388-18.669 10.237-24.809 10.237-24.809s8.5987 6.1401 10.199 24.809h-4.9892s-0.03646-2.5212-0.33581-3.941h-9.7481c-0.33581 1.4198-0.37227 3.94-0.37227 3.94zm6.0312-8.3768s0.67162-5.3607 4.1324-8.9797c3.4992 3.5494 4.2437 8.9797 4.2437 8.9797zm29.928 8.3759c1.6004-18.669 10.199-24.809 10.199-24.809s8.5987 6.1401 10.199 24.809h-4.9508s-0.0384-2.5212-0.37419-3.941h-9.7491c-0.33581 1.4198-0.37035 3.94-0.37035 3.94zm5.9937-8.3768s0.70616-5.3607 4.1324-8.9797c3.4982 3.5494 4.2792 8.9797 4.2792 8.9797zm48.539 8.3759c1.6004-18.669 10.199-24.809 10.199-24.809s8.5987 6.1401 10.237 24.809h-4.9873s-0.0384-2.5212-0.37419-3.941h-9.75c-0.33582 1.4198-0.33582 3.94-0.33582 3.94zm5.9928-8.3768s0.70808-5.3607 4.1324-8.9797c3.5366 3.5494 4.2821 8.9797 4.2821 8.9797zm-123.81 8.3796v-24.314s8.0019 2.8752 12.692 11.57c4.4298-8.1271 12.358-11.569 12.358-11.569v24.312h-4.1689v-15.865s-6.5886 6.5317-7.9654 15.438c-1.7481-8.8736-8.5229-15.829-8.5229-15.829v16.256zm49.246-25.2c0.07484 1.5616 0.14872 2.555 0.18614 3.94 0.14968 4.649 0.1871 7.5233 0.07676 18.49 0 1.1362-0.33581 2.3419-0.33581 2.3419h12.913l-0.03646-4.1861c-0.8568 0.42538-8.2264 0.14088-8.2264 0.14088v-20.727z" stroke-width=".93686" inkscape:connector-curvature="0"/>
   <path d="m106.24 39.511h3.9463c0.15063 1.6329 1.6388 2.9091 3.9472 6.6012 1.2281 1.9851 2.084 3.5833 3.2382 5.7486 3.0875-7.9149 9.23-18.882 20.099-26.157 9.492-6.3167 23.042-7.2397 34.246-5.2876 1.4162 0.247 1.2281 0.95871-0.18422 0.74556-8.0038-1.1709-22.298-1.0292-33.019 6.1749-10.981 7.3459-15.67 15.652-17.345 28.322-0.89422 6.8848 0.14775 12.209 1.7126 17.744 0.52194 1.8817 1.9352 3.3363-0.52195 4.9335-1.4507 0.95871-3.1259-0.88736-3.6843-2.4489-1.5639-4.3298-1.5639-6.2819-2.084-10.363-0.33581-2.8395 0.2226-5.004-0.52098-7.3459-0.96906-3.124-3.5375-8.59-5.8067-11.642-1.5985-2.1287-3.7947-5.1805-4.0201-7.0257z" stroke-width=".93687" inkscape:connector-curvature="0"/>
   <path d="m140.38 39.511c0.0729 1.5616 0.14775 2.555 0.18517 3.9401 0.1468 4.649 0.22068 7.5233 0.0739 18.49 0 1.1362-0.33581 2.3419-0.33581 2.3419h5.0612c-0.66874-3.5476-0.781-23.282-0.40873-24.773zm-3.5001 0.24883-0.0355 5.5711c0-2.3419-3.9079-3.1579-5.8815-2.0583-1.1542 0.64036-1.6378 2.9823 0.81938 4.757 3.0156 2.1992 6.0302 2.803 6.9244 6.2115 0.93068 3.5476-0.52002 7.2745-3.3121 8.837-3.4253 1.8799-7.8561 1.1709-10.31 0.247v-4.9335c1.4872 0.70897 3.9069 2.0217 6.4015 1.3484 3.5366-0.99348 3.1662-3.833 2.2336-5.004-1.9362-2.5203-4.3924-3.017-6.4409-5.2171-2.6807-2.8752-1.7491-6.1749 0.1113-8.3759 2.344-2.803 6.8486-2.3053 9.491-1.3832z" stroke-width=".93687" inkscape:connector-curvature="0"/>
  </g>
 </g>
</svg>
