<svg inkscape:version="0.92.1 r15371" sodipodi:docname="sabah-crest.svg" version="1.1" viewBox="0 0 168 169" xmlns="http://www.w3.org/2000/svg" xmlns:inkscape="http://www.inkscape.org/namespaces/inkscape" xmlns:sodipodi="http://sodipodi.sourceforge.net/DTD/sodipodi-0.dtd">
 <sodipodi:namedview bordercolor="#666666" borderopacity="1" gridtolerance="10" guidetolerance="10" inkscape:current-layer="svg144" inkscape:cx="84" inkscape:cy="84.5" inkscape:pageopacity="0" inkscape:pageshadow="2" inkscape:window-height="1137" inkscape:window-maximized="1" inkscape:window-width="1920" inkscape:window-x="-8" inkscape:window-y="-8" inkscape:zoom="1.3964497" objecttolerance="10" pagecolor="#ffffff" showgrid="false"/>
 <path d="M0 0h168v169H0z" fill="none"/>
 <path d="M84.037 158.058c28.582-2.274 37.685-15.57 38.466-16.355l-4.267-9.383c1.742-3.342 3.913-1.35 3.913-1.35.244 1.92 1.56 3.624 4.124 2.843 3.48-1.14 1.987-5.475 1.987-5.475s-.955-3.27-3.907-9.53c-.427-.212-.284-1.134-1.96-1.277-9.204-.853-9.348 9.458-9.348 9.458l3.63 7.89c-4.553 8.038-21.48 13.514-32.678 13.514-11.195 0-28.12-5.476-32.633-13.513l3.59-7.892s-.142-10.312-9.314-9.457c-1.708.145-1.564 1.066-1.992 1.28-2.952 6.258-3.908 9.528-3.908 9.528s-1.493 4.335 1.988 5.475c2.563.78 3.913-.923 4.16-2.843 0 0 2.136-1.992 3.878 1.35l-4.267 9.383c.78.786 9.882 14.08 38.465 16.355h.072z" fill="#ED1C24"/>
 <path d="M45.568 117.172c-1.352.144-1.705.786-1.92 1.14l-.07.07-.214.283c-2.952 6.26-3.945 9.53-3.945 9.53-.038.143-.82 2.416.103 4.193.427.854 1.14 1.424 2.135 1.708 1.066.354 2.13.286 2.912-.215.855-.566 1.498-1.562 1.64-2.842-.072.215.605-.428 1.42-.284.678.14 1.28.71 1.812 1.708l-4.37 9.24.428.5c4.337 5.26 15.073 14.29 38.466 16.208h.072c23.358-1.918 34.13-10.947 38.466-16.208l.144-.143.176-.5-4.267-9.384c.534-.712 1.14-1.282 1.816-1.423.853-.144 1.492.5 1.527.5.072 1.064.677 2.06 1.527 2.627.818.5 1.85.568 2.915.215.998-.284 1.71-.854 2.133-1.708.927-1.777.146-4.05.106-4.192 0 0-.99-3.27-3.946-9.53-.137-.144-.28-.355-.28-.355-.215-.354-.568-.996-1.92-1.14-2.633-.21-4.835.428-6.472 1.92-3.166 2.848-3.27 7.68-3.27 7.896l3.623 8.033c-4.3 7.325-20.616 13.01-32.318 13.01-11.694 0-28.01-5.685-32.314-13.295l3.592-7.605c.034-.358-.07-5.19-3.235-8.038-1.636-1.492-3.806-2.13-6.472-1.92zm-3.697 16.282c-.853-.21-1.418-.708-1.74-1.35-.783-1.563-.07-3.624-.07-3.698.034 0 .995-3.27 3.913-9.457.46-.64.672-.992 1.668-1.136 2.453-.215 4.445.428 5.973 1.777 2.916 2.63 2.986 7.397 2.986 7.397l-3.56 7.75c4.484 8.178 21.05 14.007 32.958 14.007 11.912 0 28.516-5.83 32.957-13.724l-3.624-8.176c.07.143.145-4.625 3.06-7.253 1.528-1.35 3.52-1.99 5.974-1.776.995.144 1.206.497 1.423.85l.426.43c2.735 6.043 3.697 9.312 3.732 9.312 0 .074.71 2.136-.07 3.698-.322.642-.892 1.14-1.707 1.35-.925.358-1.743.284-2.38-.14-.68-.425-1.175-1.28-1.318-2.345-.14-.285-1.03-1.07-2.204-.856-.888.144-1.67.855-2.312 2.063l4.267 9.668c-4.478 5.12-15.107 14.008-38.18 15.858H84c-23.106-1.85-33.737-10.737-38.004-15.928l4.056-9.313c-.643-1.493-1.423-2.205-2.313-2.35-1.173-.214-2.063.572-2.097.642-.25 1.28-.712 2.135-1.424 2.56-.642.424-1.427.5-2.35.14z"/>
 <path d="M51.468 84.68V66.406l64.847-.074V84.68" fill="#FFF"/>
 <path d="M116.315 65.907l-65.275.072v19.056h65.704v-19.13h-.43zm-.387.782v17.56H51.86V66.76l64.068-.07z"/>
 <path d="m51.468 66.407l32.354 9.456 32.424-9.597" fill="#00A1E4"/>
 <path d="M51.468 74.937l32.354 9.458 32.424-9.6v9.456l-64.778.145" fill="#ED1C24"/>
 <path d="M118.06 63.918l-68.722.07v41.453c0 .287.604 25.455 34.523 38.61 33.806-13.225 34.59-38.397 34.59-38.68V63.917h-.39zm-.394.854v40.598c0 .284-.813 24.957-33.77 37.97-33.14-13.013-33.742-37.612-33.742-37.898v-40.67h67.512z"/>
 <path d="M116.46 66.05l-65.276.072v19.056h65.703v-19.13h-.428zm-.39.78v17.564h-64.1v-17.49l64.1-.074z"/>
 <path d="M116.315 86.955V105.3s-.354 23.818-32.28 36.402h-.07c-32.318-12.51-32.497-36.332-32.497-36.332V86.955h64.847z" fill="#00B9F2"/>
 <path d="M54.956 117.53h58.234s2.273-6.83 2.664-9.388c0 0-10.947-2.13-16.173-14.36 0 0-2.277.637-2.772.494-1.208-.425-3.487-.638-3.487-.638s-1.064-1.35-1.6-1.493c-1.1-.284-1.1 1.847-3.09 2.558-1.99.64-4.122 1.21-5.763.925-1.562-.286-3.697 1.708-4.62 1.992-.957.284-2.026-.427-2.026-.427l-1.316.995s-5.897 1.422-7.108 1.138c-.638-.144-1.563-1.068-1.563-1.068l-1.21 2.563s-1.204-.14-1.49-.567c-.286-.358-.784.568-1.068.99-.286.36-1.847 2.918-2.417 3.486-.498.496-3.59 3.27-3.59 3.27s-3.31 1.14-4.126 1.14c0 0 .248 3.27.96 4.478.64 1.208 1.424 3.484 1.424 3.484" fill="#0071BC"/>
 <path d="M116.46 86.53H51.183v18.84c0 .284.57 24.176 32.78 36.69 32.14-12.584 32.922-36.476 32.922-36.76V86.53h-.427zm-.39.78v17.99c0 .285-.746 23.678-32.034 36.05-31.464-12.3-32.032-35.765-32.066-35.98V87.31h64.1z"/>
 <path d="M83.394 14.356c-.712-.213-1.243-.924-1.243-1.703 0-1.07.816-1.852 1.848-1.852 1.033 0 1.85.783 1.85 1.853 0 .78-.532 1.49-1.24 1.703v-.213l.603 40.745h-2.42l.605-40.745v.213z" fill="#FFF"/>
 <path d="M81.975 12.653c0 .78.53 1.42 1.21 1.703 0 .568-.572 40.532-.572 40.532l2.598.212s-.392-40.176-.392-40.744c.673-.284 1.208-.924 1.208-1.703 0-1.14-.89-2.063-2.03-2.063-1.1 0-2.02.924-2.02 2.063zm.39 0c0-.93.745-1.637 1.633-1.637.894 0 1.675.707 1.675 1.637 0 .638-.462 1.276-1.14 1.49l.498 40.745-2.24-.215.82-40.67-.142.14c-.677-.213-1.104-.852-1.104-1.49z"/>
 <path d="M84.14 61.07s.997.144 2.1-.14c1.102-.357 2.417-3.77 1.778-4.053-.568-.286-3.878-.355-3.878-.355h-.143s-3.306.07-3.908.355c-.605.284.71 3.695 1.81 4.054 1.066.283 2.098.14 2.098.14h.142z" fill="#FFF"/>
 <path d="M80.02 56.735c-.215.073-.324.357-.25.78.07.996 1.065 3.275 2.062 3.555l2.205.216 2.274-.216c.998-.28 1.994-2.56 2.064-3.555.073-.423-.035-.707-.21-.78-.644-.354-3.7-.428-4.023-.428-.496 0-3.515.074-4.12.428zm1.916 3.982c-.604-.213-1.454-1.703-1.738-2.916-.108-.496-.04-.707 0-.707.427-.215 2.484-.357 3.84-.428 1.418.07 3.482.213 3.908.428.034 0 .108.21 0 .78-.284 1.14-1.137 2.63-1.777 2.844l-1.99.143h-.215l-2.03-.143z"/>
 <path d="M78.38 57.23s-5.793-.138-5.578 1.355c.178 1.42 2.452 3.196 3.59 3.27 1.14.07 3.59-.427 4.232-.785.565-.423-1.282-3.697-2.243-3.84z" fill="#FFF"/>
 <path d="M72.802 58.016c-.18.143-.25.354-.215.57.215 1.634 2.598 3.34 3.77 3.48 1.208.074 3.697-.425 4.335-.853.213-.144.287-.423.144-.85-.21-1.07-1.566-3.202-2.415-3.345-.502.002-4.694-.07-5.618.998zm3.624 3.626c-1.065-.07-3.27-1.706-3.446-3.13.78-.996 4.123-1.14 5.367-1.065.567.07 1.85 1.92 2.135 2.986-.5.78-2.917 1.28-4.056 1.21z"/>
 <path d="M77.85 58.016s-3.73-.072-3.63.854c.145.992 1.603 2.062 2.35 2.13.71 0 2.273-.283 2.666-.496.39-.284-.816-2.346-1.386-2.488z" fill="#ED1C24"/>
 <path d="M71.522 58.796s-5.76 1.066-5.265 2.49c.536 1.35 3.13 2.632 4.233 2.417 1.104-.144 3.446-1.136 3.948-1.637.495-.494-1.994-3.34-2.916-3.27z" fill="#FFF"/>
 <path d="M71.448 58.586c-.462.14-4.585.923-5.293 2.13-.107.216-.107.43-.04.64.535 1.497 3.202 2.774 4.41 2.563 1.07-.145 3.485-1.14 4.055-1.71.178-.212.178-.496 0-.853-.5-.994-2.24-2.845-3.132-2.77zm2.773 2.986c-.388.853-2.698 1.777-3.764 1.918-1.03.213-3.522-.996-3.982-2.276.568-1.21 3.84-1.99 5.048-2.2.568-.075 2.204 1.49 2.7 2.558z"/>
 <path d="M71.164 59.862s-3.41.642-3.127 1.493c.284.785 1.85 1.566 2.525 1.423.676-.07 2.06-.638 2.384-.996.28-.284-1.214-1.99-1.782-1.92z" fill="#00A1E4"/>
 <path d="M89.725 57.23s5.83-.138 5.615 1.355c-.21 1.42-2.45 3.196-3.59 3.27-1.138.07-3.588-.427-4.23-.785-.57-.423 1.28-3.697 2.205-3.84z" fill="#FFF"/>
 <path d="M89.725 57.02c-.854.143-2.205 2.273-2.452 3.344-.106.428-.04.707.178.85.64.43 3.128.928 4.302.854 1.21-.14 3.59-1.847 3.805-3.48.035-.217-.037-.428-.216-.57-.922-1.07-5.116-.998-5.615-.998zm5.33 1.21c-.068 1.706-2.272 3.343-3.34 3.412-1.138.07-3.553-.428-4.054-.782.285-1.492 1.567-3.344 2.1-3.413 1.28-.074 4.624.07 5.296.782z"/>
 <path d="M96.62 58.796s5.728 1.066 5.227 2.49c-.497 1.35-3.093 2.632-4.192 2.417-1.14-.144-3.453-1.136-3.947-1.637-.5-.494 1.99-3.34 2.913-3.27z" fill="#FFF"/>
 <path d="M93.563 61.355c-.144.427-.18.642 0 .854.568.567 2.95 1.563 4.056 1.707 1.205.212 3.872-1.065 4.408-2.563.067-.21.067-.424-.073-.64-.677-1.207-4.838-1.99-5.265-2.13h-.035c-.852-.072-2.63 1.78-3.092 2.77zm4.125 2.135c-1.103-.14-3.38-1.065-3.84-1.564.57-1.422 2.204-2.986 2.772-2.912 1.21.21 4.48.99 5.015 1.918-.46 1.562-2.916 2.77-3.947 2.558z"/>
 <path d="M90.4 58.158s3.482-.073 3.378.78c-.14.924-1.493 1.92-2.17 1.993-.678.07-2.17-.283-2.524-.498-.354-.212.78-2.203 1.317-2.274z" fill="#00B9F2"/>
 <path d="M97.083 59.862s3.413.642 3.13 1.424c-.32.854-1.887 1.636-2.524 1.492-.68-.07-2.064-.638-2.384-.996-.32-.284 1.21-1.99 1.777-1.92z" fill="#0071BC"/>
 <path d="M81.12 39.74c.678-.567.78-2.273.78-2.273s1.21-.568 1.284-.284c.14.284 1.634.568 2.026.568.39 0 1.31-.356.604-.71-.712-.284-1.424-1.207-1.993-1.35-.637-.215-3.52.143-3.52.143s-1.705 2.13-2.522 2.7c-.782.64-11.697 5.047-13.794 6.112-1.85 1-2.7 3.84-2.7 4.625 0 .78 1.88 1.134 3.09 2.486.96 1.14 7.716 5.12 7.716 5.12 1.065-.997 7.396-1.562 7.396-1.562S74.9 50.05 74.08 49.91c-.78-.216-4.408-2.136-4.408-2.136s4.768-2.77 5.617-3.91c1.102-1.35 3.307-2.416 4.69-2.49 0 0 2.702.287 2.986.287v-4.62l-1.065.497" fill="#FFE0BF"/>
 <path d="M80.267 35.69c-.144.07-2.593 2.7-2.593 2.7-.394.355-3.737 1.705-6.934 3.06l-6.863 3.055c-1.955.996-2.81 3.98-2.81 4.766 0 .566.57.85 1.28 1.21l1.848 1.418c.996 1.14 7.536 4.98 7.788 5.195 1.103-.854 5.795-1.424 7.537-1.566-.678-1.28-4.553-5.616-5.37-5.83l-4.37-2.06c.213.212 4.8-2.49 5.653-3.63 1.065-1.35 3.197-2.345 4.586-2.414l2.945.28s.218-4.053.218-4.55c.284.428 1.812.64 2.026.64.245 0 .957-.212 1.03-.57l.07-.14-.428-.355-.993-.71-1.03-.713c-.607-.212-3.31.14-3.593.214zM64.515 51.687l-2.022-1.493c-.536-.358-.996-.642-.996-.924 0-.783.853-3.484 2.557-4.407l6.863-2.99c3.38-1.42 6.575-2.77 7.002-3.127l2.562-2.77c.99-.074 2.843-.285 3.27-.142l1.99 1.42c.073.14-.285.284-.53.284-.428 0-1.674-.285-1.817-.428-.497-.354-1.278 0-1.563.215-.14.57-.358 1.85-.853 2.273l.25.36c.745-.645.886-2.348.886-2.49 0 .143.925-.144.925-.144h.036c0 .07-.285 4.27-.285 4.338-.034-.213-2.77-.497-2.77-.497-1.46.07-3.734 1.135-4.87 2.56-.854 1.064-5.55 3.838-5.55 3.91 0 .355 4.445 2.416 4.445 2.416.534.145 3.52 3.415 5.297 5.404-.14-.354-6.256.284-7.394 1.28.142-.07-6.47-3.98-7.433-5.046z"/>
 <path d="M85.884 37.896s-2.987-.502-3.093-.145c-.177.783.107.71 1.6.995 1.636.36 2.13-.284 1.494-.85z" fill="#FFE0BF"/>
 <path d="M82.613 37.68v.78l1.21.427.567.073c1 .213 1.71.07 1.92-.357.144-.284.035-.566-.284-.852v-.07h-.07c-3.2-.57-3.31-.143-3.343 0zm1.85.923l-.568-.142-.93-.21c.22-.5 1.603-.355 2.85-.214.068.14.142.213.142.282v.073c-.143.213-.642.355-1.494.213z"/>
 <path d="M85.884 38.745s-2.987-.496-3.093-.07c-.177.782.107.713 1.6.998 1.636.284 2.13-.285 1.494-.928z" fill="#FFE0BF"/>
 <path d="M82.613 38.603v.71l1.21.43.567.143c1 .142 1.71.072 1.92-.356.144-.284.035-.568-.284-.926h-.07c-3.2-.568-3.31-.143-3.343 0zm1.81.854l-.528-.07-.93-.283c.22-.5 1.603-.358 2.85-.144.068.07.142.213.142.284v.07c-.143.214-.642.36-1.533.143z"/>
 <path d="M85.884 39.885s-2.987-.497-3.093-.144c-.177.856.107.782 1.6 1.066 1.636.285 2.13-.353 1.494-.92z" fill="#FFE0BF"/>
 <path d="M82.613 39.74v.713l1.21.428.567.07c1 .215 1.67.07 1.92-.354.144-.286.035-.57-.284-.855l-.034-.067h-.035c-3.202-.5-3.31-.075-3.344.068zm1.85.857l-.568-.144-.93-.215c.22-.497 1.603-.354 2.85-.143.068.073.142.143.142.284v.072c-.143.145-.642.285-1.494.145z"/>
 <path d="M85.6 40.95s-2.703-.354-2.81 0c-.177.854-.177.643 1.316.923 1.602.284 2.096-.28 1.494-.923z" fill="#FFE0BF"/>
 <path d="M82.613 40.95l-.035.712.816.284.677.142c.997.143 1.672.07 1.922-.354.108-.284.034-.643-.25-.927h-.07l-.033-.07c-2.885-.357-2.993.07-3.027.213zm1.527.712l-.672-.07-.57-.143c.25-.5 1.492-.43 2.593-.285.11.07.183.21.183.284 0 0 0 .068-.034.068-.11.215-.61.355-1.5.144z"/>
 <path d="M86.81 33.77c-.71-.568-.783-2.346-.783-2.346s-1.208-1.282-1.318-.996c-.102.354-1.03.354-1.385.354-.428 0-1.527-.423-.818-.71.678-.283.996-.927 1.6-1.137.603-.217 3.486.923 3.486.923s1.705 2.063 2.523 2.7c.815.644 10.416 9.816 12.517 10.953 1.813.926 2.7 3.77 2.7 4.55 0 .854-1.885 1.14-3.093 2.49-.996 1.138-6.54 6.328-6.54 6.328-1.07-.998-7.396-1.563-7.396-1.563S92 49.482 92.817 49.27c1.385-.356 4.09-2.704 4.09-2.704s-3.343-1.563-4.692-4.904c-.676-1.636-2.917-6.187-4.302-6.33 0 0-2.702.357-3.02.357v-4.625l.816.285" fill="#FFE0BF"/>
 <path d="M84.037 28.79l-.853.57-.855.57-.248.428c.07.423.96.563 1.243.563.673 0 1.42 0 1.566-.422-.146.14.994 1.065.994 1.065-.07 0 .04 1.706.785 2.348l.28-.282c-.53-.428-.71-1.708-.748-2.205-1.17-1.282-1.384-1.21-1.494-1.21-.245.214-.388.355-1.384.355-.284 0-.78-.21-.854-.284.106-.07.997-.638.997-.638l.71-.502c.355-.14 2.168.43 3.34.928l2.49 2.627 2.454 2.278c3.198 2.917 8.568 7.89 10.06 8.676 1.707.922 2.634 3.624 2.634 4.405 0 .283-.5.567-1.07.926l-1.99 1.493-6.504 6.255c-.89-.997-7.005-1.635-7.253-1.635 1.955-2.49 4.086-5.475 4.514-5.618 1.425-.354 4.09-2.632 4.197-2.773-.07-.355-3.34-1.92-4.658-5.117-.036-.074-2.666-6.26-4.445-6.4-.067 0-3.054.283-3.054.283l.212-4.41.537.5-.678-.713-.253 4.837c.182.144 3.236-.143 3.236-.143 1.174.07 3.31 4.27 4.09 6.187 1.317 3.27 4.514 4.906 4.73 4.976-.355 0-2.773 2.063-3.982 2.347-.853.284-4.017 5.12-4.62 6.116 1.847.497 6.54 1.066 7.43 1.848.25 0 6.79-6.327 6.79-6.327l1.918-1.352c.676-.425 1.21-.71 1.21-1.28 0-.78-.82-3.697-2.773-4.763-1.494-.78-6.828-5.686-10.03-8.602l-2.483-2.28-2.454-2.698c-.607-.213-3.097-1.14-3.736-.926z"/>
 <path d="M82.897 30.853s2.987.356 2.987.782c-.035.78-.32.642-1.813.5-1.6-.214-1.92-.926-1.173-1.282z" fill="#FFE0BF"/>
 <path d="M82.79 30.638c-.353.215-.53.502-.46.786.072.428.71.78 1.707.853l.57.07 1.277-.07.217-.642c0-.142 0-.57-3.203-.997H82.792zm1.85 1.354l-.534-.07c-.922-.07-1.35-.357-1.385-.57v-.07c0-.072.107-.142.246-.216 1.213.144 2.564.428 2.742.57-.108.356-1.067.356-1.067.356z"/>
 <path d="M82.613 31.708s3.06.354 3.026.78c-.04.856-.324.64-1.818.498-1.637-.213-1.92-.924-1.21-1.278z" fill="#FFE0BF"/>
 <path d="M82.543 31.493c-.358.215-.568.5-.5.783.107.423.712.78 1.743.925l.568.07 1.245-.07.214-.71c.034-.145.07-.57-3.167-.997H82.543zm1.847 1.35l-.568-.07c-.855-.073-1.35-.357-1.35-.567 0-.144.07-.213.21-.284 1.213.14 2.598.425 2.774.638-.102.283-1.066.283-1.066.283z"/>
 <path d="M82.33 32.7s2.986.428 2.986.854c-.036.786-.32.643-1.847.5-1.603-.215-1.923-.926-1.14-1.355z" fill="#FFE0BF"/>
 <path d="M82.22 32.56c-.39.214-.53.498-.495.785.106.425.746.778 1.743.922h.568l1.243-.07.25-.642c0-.143 0-.638-3.203-.996l-.07-.07-.037.07zm1.886 1.352l-.568-.073c-.925-.07-1.353-.355-1.422-.57v-.068c0-.073.144-.144.286-.284 1.207.21 2.56.495 2.735.638-.106.356-1.03.356-1.03.356z"/>
 <path d="M82.293 33.912s2.702.354 2.668.782c-.034.78 0 .638-1.492.497-1.636-.21-1.92-.923-1.175-1.278z" fill="#FFE0BF"/>
 <path d="M82.185 33.698c-.354.214-.533.5-.494.78.107.426.747.784 1.743.927l.673.07.89-.07.176-.642c0-.213.04-.64-2.843-1.065H82.184zm1.994 1.35l-.712-.07c-.855-.073-1.353-.357-1.353-.567 0-.143.07-.212.213-.286 1.104.144 2.313.428 2.455.64-.04.357-.604.284-.604.284z"/>
 <path d="M85.246 27.583s3.127-1.207 6.505.07c3.414 1.28 9.424 3.77 11.023 2.488l.388-4.19c-1.56 1.276-7.996-.997-11.41-2.28-3.377-1.35-6.504-.14-6.504-.14v4.053z" fill="#ED1C24"/>
 <path d="M103.98 20.828s-4.515 1.208-6.435.284c-.535-.215-1.315-.64-2.206-.997l.462-4.55c.996.5 1.886.853 2.454 1.14 1.92.922 6.043-.145 6.043-.145l-.32 4.268z" fill="#00A1E4"/>
 <path d="M84.89 14.57s2.702-1.35 4.906-1.07c2.205.36 5.903 2.065 5.903 2.065l-.787 8.96s-4.123-1.065-5.117-1.28c-.996-.213-3.77-.213-4.407.215 0 0-.18-7.823-.5-8.89z" fill="#00ABE6"/>
 <path d="M85.49 19.83s2.314-.85 4.625-.21c2.31.71 4.906 1.492 4.906 1.492l.177-1.635s-.78-.215-1.275-1.064c-.502-.786-.786-.713-.786-.713s-.32-.996-.638-.64c-.284.282-.568.497-.568.497h-.925l-.497-.142-1.21.142h-.994l-.5-.428-.71.78-.783.217-.994.923.175.78z" fill="#0071BC"/>
 <path d="M88.908 13.365c-2.74.067-4.055.848-4.09.922l-.142.07.032.072c0 .14 1.284 9.74 0 13.296.322.21 3.345-.927 6.65.284 6.58 2.558 10.384 3.27 11.593 2.273l1.564-13.793c-.285-.214-4.41.852-6.188-.073-2.417-1.136-6.824-3.195-9.418-3.052zm.035.354c2.488-.075 6.79 1.986 8.887 2.916 2.24 1.134 6.398.068 6.54 0l-1.738 13.506c-.677.496-3.235.57-11.13-2.49-3.448-1.275-6.54-.14-6.684-.068.638-1.28.782-3.485.782-5.69 0-3.41-.428-6.75-.498-7.32.144-.074 1.352-.786 3.84-.855z"/>
 <path d="M49.053 123.36l-3.485 7.68.603.283 3.63-7.964-.605-.285"/>
 <path d="M45.14 117.315c-1.527.358-2.558 2.563-2.132 4.55.143.782 1 3.414 4.907 2.773 1.492-.214 2.135-1.49 2.135-2.63-.073-1.282-.927-2.632-2.523-2.843 0 0-2.1 4.05-2.278 4.336-.923-.57-1.46-1.28-1.6-1.775-.036-.287-.07-.497-.07-.782 0-1.352.71-2.7 1.703-2.985l.358-.073-.175-.64-.325.07zm2.63 2.347c.964.357 1.567 1.423 1.567 2.42.035.78-.357 1.705-1.492 1.915-.928.144-1.39-.07-1.958-.28.18-.358 1.884-4.055 1.884-4.055z"/>
 <path d="M54.493 126.703c-.107 1.135-1.064 1.703-2.098 2.346-.927.57-1.923 1.208-2.31 2.416-.32.997.387 2.416.995 3.412l.178.284.568-.354-.144-.284c-.783-1.21-1.137-2.275-.926-2.916.283-.922 1.14-1.424 1.994-1.988 1.137-.642 2.272-1.354 2.415-2.847l.04-.354-.68-.075-.032.358z"/>
 <path d="M118.2 123.36l3.625 7.963.61-.284-3.63-7.965"/>
 <path d="M122.362 117.885l.355.073c.993.284 1.705 1.634 1.705 2.985 0 .285-.034.495-.07.782-.142.494-.676 1.206-1.6 1.776-.142-.285-1.92-4.124-1.92-4.124-1.954 0-2.81 1.35-2.88 2.633 0 1.138.642 2.414 2.135 2.628 3.908.64 4.763-1.99 4.903-2.772.428-1.987-.603-4.192-2.135-4.55l-.318-.07-.175.64zm-2.206 6.112c-1.14-.21-1.526-1.135-1.492-1.916 0-.995.638-2.06 1.884-2.2 0 0 1.424 3.48 1.602 3.837-.57.21-1.07.424-1.994.28z"/>
 <path d="M112.796 126.42l.04.353c.14 1.493 1.275 2.205 2.415 2.847.855.564 1.704 1.066 1.99 1.988.215.64-.14 1.707-.925 2.916l-.14.284.568.354.178-.284c.604-.996 1.28-2.415.996-3.412-.354-1.208-1.384-1.847-2.313-2.417-.992-.644-1.988-1.212-2.097-2.347l-.034-.358-.676.074z"/>
 <g fill="#FFF">
  <path d="M58.936 145.685h-.215c0-.568-.14-1.276-.638-1.56-.393-.218-.89-.075-1.1.283-.25.497.104.922.39 1.276.567.57 1.138 1.07.675 1.92-.393.712-1.173.855-1.812.428-.358-.144-.536-.497-.75-.568-.105-.07-.245-.07-.39-.07l.213-1.208h.176c.11.638.25 1.35.82 1.703.428.217.923.143 1.174-.285.673-1.208-1.812-1.777-.998-3.196.394-.644 1.066-.786 1.71-.43.177.07.246.145.39.286.07.143.105.213.215.213.104.07.21.14.318.07l-.177 1.135zM61.992 145.827l-.354 3.414c-.07.216-.14.784-.035.997.035.14.145.215.285.284l-.107.216-1.564-.783.073-.144c.175.073.496.283.638 0 .032-.07.072-.285.072-.428l.07-.78-1.388-.64-.176.214c-.143.14-.5.5-.57.638-.14.284.143.428.39.568l-.103.144-1.39-.64.107-.142c.428.21.82-.213 1.104-.497l2.382-2.563.566.143zm-.64.428l-1.492 1.493 1.246.568.247-2.06zM62.276 150.875l.073-.21c.426.21.535.07.78-.57l.82-2.206c.245-.57.21-.782-.25-.923l.067-.213 1.213.497c.713.214 1.988.64 1.635 1.704-.25.712-.922.646-1.564.502.644.284 1.315.854 1.065 1.634-.354.855-1.352.712-2.063.428l-1.776-.643zm2.204-1.704c.642.212 1.282.286 1.532-.426.245-.568-.18-.996-.713-1.21-.462-.14-.568 0-.712.43l-.393 1.064.285.143zm-.888 1.35c-.143.428-.104.64.324.78.637.217 1.275.217 1.527-.495.318-.78-.322-1.206-1.033-1.493l-.284-.07-.534 1.28zM69.885 148.744l.144 3.413c0 .284 0 .78.068.997.074.14.215.21.358.283l-.074.144-1.703-.5.068-.144c.215 0 .568.218.64-.142v-1.134l-1.494-.43-.14.215c-.073.07-.427.5-.427.71-.106.285.178.427.427.427l-.073.212-1.457-.423.034-.214c.5.142.82-.286 1.07-.64l1.99-2.843.568.07zm-.568.497l-1.21 1.708 1.28.43-.07-2.137zM74.33 152.088l.213-.998c.142-.638.106-.78-.39-.922l.068-.144 1.677.354-.04.217c-.496-.143-.568 0-.746.638l-.53 2.275c-.14.71-.07.853.39.926l-.036.213-1.708-.354.074-.217c.462.143.568 0 .71-.712l.246-.992-1.812-.427-.25 1.064c-.14.638-.103.78.36.924l-.036.142-1.673-.354.04-.214c.46.14.562 0 .71-.64l.564-2.273c.143-.71.073-.854-.39-.93l.035-.21 1.67.355-.036.215c-.46-.14-.57 0-.712.64l-.21.997 1.813.426zM83.752 154.646c-.04.64.034.78.496.853v.143l-1.705-.073v-.21c.497.068.566-.145.64-.787l.142-2.91-1.742 3.837h-.21l-1.25-4.053-.21 2.914c0 .713.068.855.53.855l-.035.213-1.384-.07.034-.216c.497.073.57-.14.604-.78l.144-2.347c.034-.638-.035-.855-.536-.855l.038-.21 1.317.068 1.066 3.63 1.528-3.488 1.314.143v.145c-.496 0-.568.14-.638.853l-.142 2.346zM87.166 150.875l1.35 3.2c.07.218.284.712.463.855.104.142.248.142.39.142v.213l-1.743.143-.034-.213c.212 0 .604 0 .57-.284 0-.143-.074-.283-.144-.427l-.285-.71-1.532.142-.034.215c-.068.21-.212.707-.212.852.035.284.354.357.604.284l.035.214-1.565.144v-.215c.5-.07.642-.572.747-.995l.817-3.344.57-.215zm-.357.712l-.5 2.062 1.316-.142-.817-1.92zM90.15 151.73c-.107-.64-.21-.782-.712-.713l-.07-.212 1.78-.284.034.216c-.497.07-.535.212-.462.925l.354 2.416c.073.357.144.78-.07 1.14-.143.353-.567.638-.923.71-.284.07-.568-.072-.642-.283 0-.284.143-.428.357-.428.354-.073.39.428.64.354.142 0 .212-.143.212-.285 0-.213-.035-.498-.07-.782l-.428-2.773zM95.197 150.736c-.142-.643-.245-.783-.712-.712l-.032-.14 1.315-.285.073.14c-.5.144-.5.284-.356.924l.357 1.85c.246.994-.142 1.636-1.173 1.847-.89.213-1.602-.14-1.777-.995l-.428-2.063c-.178-.638-.25-.78-.677-.638l-.07-.212 1.67-.358.034.217c-.496.068-.496.285-.39.923l.39 1.637c.143.78.427 1.424 1.35 1.207.998-.142.93-.922.785-1.704l-.358-1.637zM100.178 149.313c-.213-.638-.358-.712-.854-.568l-.035-.213 1.67-.568.07.213c-.498.14-.498.355-.283.995l.78 2.347c.11.353.216.78.074 1.134-.107.357-.426.712-.82.855-.248.072-.53.072-.637-.214-.073-.216.035-.426.245-.5.358-.07.502.36.712.284.144-.07.18-.143.144-.284 0-.28-.108-.565-.213-.78l-.852-2.703zM103.447 146.897l2.205 2.628c.176.215.495.643.712.712.142.073.284.073.426 0l.07.215-1.636.638-.07-.215c.177-.07.567-.14.43-.423 0-.074-.145-.284-.218-.358l-.495-.568-1.423.568v.217c0 .212 0 .708.072.85.103.287.422.218.64.143l.068.216-1.42.496-.072-.144c.5-.21.425-.712.425-1.207l-.21-3.413.497-.355zm-.142.782l.108 2.13 1.24-.497-1.348-1.634zM108.142 146.043c.035-.142.07-.426 0-.57-.143-.283-.428-.072-.57 0l-.107-.214 1.315-.64.108.216c-.462.137-.427.564-.462.99l-.073 1.778.393.786c.284.638.427.707.89.496l.07.21-1.563.713-.073-.145c.427-.21.427-.425.143-.99l-.287-.57-1.633-1.14c-.32-.212-.708-.57-1.136-.353l-.073-.144 1.566-.785.104.143c-.14.074-.462.216-.39.428.07.074.25.215.355.284l1.39.925.032-1.42zM110.592 143.27l2.67 2.204c.212.144.64.497.85.497.144.073.286 0 .427 0l.073.143-1.458.924-.108-.14c.144-.143.5-.283.354-.567-.068-.074-.21-.217-.278-.217l-.643-.495-1.28.78.07.285c.034.14.144.638.215.78.178.285.462.142.675 0l.106.142-1.28.855-.144-.144c.462-.284.32-.78.217-1.21l-.855-3.41.387-.426zm.04.78l.493 2.063 1.14-.712-1.634-1.35z"/>
 </g>
</svg>
