<svg xmlns="http://www.w3.org/2000/svg" xmlns:xlink="http://www.w3.org/1999/xlink" width="800" height="800"><circle fill="#FFF100" stroke="#000" stroke-width="6" cx="395.039" cy="369.051" r="298.846"/><path fill="#FFF" stroke="#000" stroke-width="6" d="M608.96 366.192c0 118.104-95.74 213.846-213.845 213.846-55.754 0-106.525-21.337-144.592-56.29-42.57-39.09-69.254-95.206-69.254-157.556"/><path d="M169.335 473.694c3.073-1.518 5.912-2.264 8.52-2.237 1.924.028 3.834.423 5.728 1.184 1.894.76 3.537 1.807 4.928 3.14 1.863 1.765 3.49 4.058 4.884 6.88 2.522 5.104 3.16 9.87 1.918 14.298-1.243 4.427-4.32 7.853-9.23 10.278-4.87 2.405-9.432 2.767-13.684 1.084-4.253-1.683-7.636-5.07-10.15-10.16-2.545-5.15-3.2-9.925-1.966-14.317 1.234-4.395 4.252-7.777 9.053-10.15zm3.767 7.11c-3.416 1.686-5.558 3.87-6.425 6.554-.868 2.683-.612 5.42.765 8.208 1.378 2.79 3.383 4.646 6.016 5.57 2.632.925 5.697.523 9.195-1.204 3.457-1.708 5.605-3.853 6.446-6.434s.548-5.314-.876-8.198-3.434-4.782-6.026-5.697c-2.594-.915-5.626-.515-9.096 1.2zM174.77 519.66l27.104-19.934 15.697 21.345-4.584 3.373-11.074-15.06-6.415 4.72 9.56 12.998-4.586 3.372-9.558-12.998-11.518 8.47-4.624-6.285zM211.572 562.556l18.627-20.84-8.55-7.644 3.79-4.244 22.9 20.47-3.792 4.242-8.53-7.625-18.628 20.84-5.818-5.2zM229.98 578.495l18.577-28.05 6.506 4.308-7.312 11.04 12.75 8.443 7.312-11.04 6.506 4.31-18.576 28.05-6.506-4.31 8.122-12.265-12.75-8.44-8.122 12.264-6.505-4.31zM262.86 599.44l14.397-30.407 25.9 12.262-2.434 5.145-18.848-8.923-3.19 6.74 17.537 8.304-2.425 5.124-17.538-8.303-3.92 8.277 19.516 9.238-2.425 5.124-26.57-12.58zM310.708 608.207l7.507 1.31c-.123 2.262.36 4.074 1.446 5.436 1.088 1.36 2.778 2.344 5.073 2.947 2.43.64 4.38.674 5.848.103 1.47-.57 2.36-1.456 2.675-2.654.203-.77.115-1.493-.26-2.17-.378-.677-1.16-1.385-2.346-2.124-.815-.498-2.705-1.502-5.67-3.01-3.816-1.937-6.373-3.756-7.67-5.457-1.823-2.395-2.396-4.88-1.72-7.454.437-1.657 1.384-3.065 2.843-4.224 1.458-1.16 3.303-1.85 5.533-2.07 2.23-.22 4.78.05 7.653.804 4.69 1.234 7.986 3.06 9.887 5.472 1.9 2.414 2.517 5.132 1.85 8.15l-7.623-1.695c.117-1.757-.26-3.142-1.13-4.153s-2.366-1.797-4.49-2.355c-2.194-.577-4.014-.636-5.46-.18-.932.294-1.508.862-1.73 1.706-.202.77 0 1.527.603 2.272.77.945 2.89 2.278 6.363 4 3.473 1.72 5.983 3.214 7.53 4.482 1.547 1.27 2.634 2.733 3.26 4.394.628 1.66.67 3.518.13 5.574-.49 1.864-1.545 3.454-3.163 4.77-1.618 1.314-3.62 2.08-6.002 2.3-2.384.22-5.2-.098-8.446-.95-4.727-1.243-8.105-3.148-10.138-5.716s-2.818-5.74-2.354-9.51zM379.374 632.437l-8.42-1.07-2.386-8.005-15.326-1.946-4.127 7.18-8.212-1.043 19.172-31.48 8.186 1.04 11.114 35.324zm-12.578-15.014l-3.71-13.057-6.75 11.728 10.46 1.33zM383.113 598.92l15.447-.217c3.058-.043 5.34.036 6.846.236s2.856.644 4.053 1.33c1.195.688 2.197 1.61 3.004 2.77.808 1.16 1.222 2.465 1.242 3.918.022 1.576-.445 3.028-1.4 4.358-.958 1.33-2.267 2.335-3.927 3.016 2.362.563 4.187 1.556 5.473 2.976 1.285 1.42 1.94 3.102 1.97 5.044.02 1.53-.366 3.023-1.163 4.48-.797 1.458-1.896 2.63-3.3 3.513-1.402.885-3.14 1.44-5.21 1.67-1.3.14-4.435.26-9.407.36l-13.154.187-.477-33.64zm7.882 5.49l.11 7.78 5.114-.073c3.04-.043 4.928-.107 5.665-.195 1.334-.156 2.378-.572 3.133-1.25.756-.675 1.125-1.556 1.11-2.643-.015-1.04-.356-1.882-1.024-2.522s-1.654-1.02-2.956-1.14c-.774-.066-2.998-.073-6.67-.022l-4.483.064zm.19 13.378l.126 8.995 7.224-.102c2.812-.04 4.594-.133 5.348-.28 1.157-.2 2.096-.662 2.815-1.384.72-.722 1.07-1.68 1.054-2.872-.014-1.01-.307-1.862-.88-2.56-.572-.694-1.392-1.195-2.46-1.502-1.067-.306-3.376-.434-6.926-.384l-6.3.09zM457.1 626.9l-8.407 1.17-4.395-7.105-15.302 2.127-2.108 8.008-8.2 1.14 10.28-35.396 8.174-1.136 19.96 31.193zm-16.063-11.205l-6.993-11.633-3.452 13.084 10.445-1.45zM461.188 625.8l-9.125-32.383 7.51-2.116 3.593 12.746 14.718-4.147-3.592-12.746 7.512-2.116 9.125 32.382-7.513 2.117-3.99-14.16-14.717 4.148 3.99 14.158-7.512 2.117zM512.445 608.98l-15.12-30.056 11.19-5.628c4.238-2.132 7.077-3.372 8.516-3.72 2.206-.544 4.356-.395 6.45.442 2.095.84 3.743 2.455 4.946 4.847.93 1.845 1.324 3.59 1.188 5.234s-.618 3.122-1.442 4.437c-.824 1.313-1.79 2.395-2.898 3.243-1.52 1.124-3.857 2.48-7.014 4.067l-4.545 2.287 5.703 11.337-6.973 3.51zm-5.59-28.48l4.29 8.53 3.815-1.92c2.747-1.382 4.506-2.463 5.273-3.244.77-.78 1.247-1.637 1.437-2.57s.06-1.847-.387-2.735c-.55-1.093-1.373-1.81-2.47-2.148-1.095-.34-2.252-.313-3.472.077-.9.28-2.606 1.054-5.118 2.317l-3.367 1.694zM569.9 574.928l-7.033 4.754-7.076-4.44-12.798 8.65 1.637 8.118-6.86 4.636-6.368-36.304 6.836-4.62 31.66 19.206zm-19.358-2.982l-11.403-7.36 2.665 13.266 8.737-5.906zM573.037 572.092l-22.98-24.573 11.997-11.22c3.017-2.82 5.416-4.65 7.195-5.486 1.78-.837 3.607-1.075 5.484-.716 1.877.36 3.495 1.268 4.854 2.72 1.725 1.845 2.525 3.95 2.403 6.314-.12 2.366-1.274 4.864-3.46 7.493 1.818-.526 3.48-.79 4.98-.792 1.503 0 3.828.317 6.976.955l7.93 1.57-6.816 6.375-9.12-1.493c-3.252-.543-5.38-.81-6.383-.804s-1.895.2-2.67.58c-.776.38-1.818 1.182-3.128 2.406l-1.156 1.08 9.593 10.26-5.7 5.33zm-7.56-19.51l4.217-3.944c2.734-2.557 4.348-4.254 4.84-5.092.492-.837.702-1.682.627-2.533-.073-.853-.456-1.646-1.145-2.385-.773-.826-1.65-1.257-2.634-1.292-.98-.033-1.998.314-3.048 1.044-.514.377-1.927 1.646-4.237 3.806l-4.448 4.16 5.83 6.235zM601.167 544.902l-26.78-20.365 4.725-6.212 11.893 9.044-2.35-21.594 6.353-8.352 1.62 19.516 25.638.22-6.112 8.038-19-1.102.647 8.44 8.094 6.154-4.727 6.212z"/><path d="M613.46 510.205l2.907-7.044c2.18.61 4.054.534 5.62-.23s2.89-2.204 3.977-4.313c1.15-2.234 1.608-4.13 1.37-5.687-.24-1.557-.91-2.62-2.012-3.187-.707-.364-1.432-.437-2.174-.216s-1.603.83-2.582 1.828c-.663.687-2.053 2.313-4.168 4.88-2.72 3.306-5.05 5.406-6.992 6.304-2.732 1.26-5.28 1.28-7.648.06-1.522-.784-2.69-2.014-3.506-3.69-.815-1.675-1.088-3.625-.82-5.85.27-2.224 1.085-4.656 2.445-7.297 2.223-4.312 4.72-7.133 7.487-8.464 2.77-1.333 5.555-1.345 8.358-.038l-3.31 7.073c-1.69-.495-3.124-.43-4.3.2-1.177.63-2.27 1.922-3.274 3.874-1.04 2.015-1.492 3.778-1.36 5.29.085.973.515 1.66 1.29 2.06.707.363 1.49.332 2.347-.097 1.09-.545 2.852-2.326 5.285-5.344 2.433-3.018 4.437-5.144 6.01-6.38 1.576-1.233 3.24-1.977 4.997-2.228s3.58.11 5.47 1.084c1.714.884 3.036 2.258 3.97 4.122s1.246 3.984.942 6.358c-.304 2.375-1.225 5.055-2.763 8.038-2.238 4.344-4.83 7.23-7.778 8.655-2.948 1.428-6.212 1.507-9.79.235z"/><path fill="#FFF" stroke="#000" stroke-width="6" d="M181.27 366.192c0-118.104 95.74-213.846 213.845-213.846 118.104 0 213.846 95.742 213.846 213.846"/><g><path d="M165.512 321.315l-29.688-6.21-2.218 10.602-6.045-1.265 5.942-28.396 6.045 1.265-2.213 10.58 29.688 6.21-1.51 7.215zM170.555 298.87l-34.27-12.578 2.54-6.92 13.488 4.95 4.977-13.558-13.49-4.95 2.54-6.92 34.272 12.578-2.54 6.92-14.985-5.5-4.977 13.56 14.985 5.5-2.54 6.918zM183.866 264.552l-31.986-17.596 13.047-23.717 5.41 2.976-9.493 17.26 7.09 3.9 8.835-16.06 5.388 2.965-8.834 16.06 8.706 4.79 9.83-17.87 5.39 2.964-13.384 24.328zM181.352 199.484l9.547-11.036c1.89-2.185 3.39-3.735 4.5-4.65 1.11-.917 2.322-1.548 3.632-1.897 1.31-.347 2.69-.388 4.14-.122 1.45.266 2.77.915 3.963 1.947 1.293 1.12 2.178 2.494 2.655 4.125s.47 3.276-.023 4.936c1.945-1.26 3.9-1.83 5.86-1.713 1.963.117 3.742.866 5.336 2.245 1.256 1.086 2.224 2.435 2.906 4.045.68 1.61.938 3.228.773 4.852-.165 1.625-.807 3.248-1.925 4.87-.703 1.017-2.58 3.313-5.628 6.887l-8.13 9.397-27.608-23.886zm9.418-1.6l6.384 5.523 3.16-3.654c1.88-2.172 3.017-3.55 3.41-4.13.712-1.052 1.032-2.087.958-3.106s-.556-1.914-1.448-2.685c-.854-.74-1.75-1.104-2.692-1.094s-1.87.43-2.787 1.26c-.54.5-1.946 2.06-4.216 4.685l-2.77 3.2zm10.98 9.5l7.383 6.386 4.464-5.16c1.738-2.01 2.784-3.332 3.138-3.97.566-.96.783-1.952.65-2.978s-.69-1.963-1.67-2.81c-.828-.717-1.705-1.124-2.63-1.222-.925-.098-1.848.12-2.77.65-.92.532-2.478 2.065-4.67 4.602l-3.895 4.5zM220.724 182.95c-2.384-2.852-3.96-5.603-4.724-8.253-.555-1.96-.756-3.966-.602-6.02.154-2.055.66-3.905 1.513-5.55 1.13-2.196 2.833-4.248 5.113-6.153 4.127-3.45 8.5-4.93 13.117-4.44 4.617.49 8.832 3.016 12.643 7.577 3.78 4.523 5.507 9.09 5.183 13.698-.324 4.61-2.543 8.632-6.658 12.07-4.166 3.482-8.54 4.98-13.122 4.493-4.582-.488-8.736-2.96-12.462-7.42zm5.668-5.06c2.65 3.17 5.393 4.964 8.226 5.376 2.833.413 5.377-.323 7.632-2.208s3.426-4.243 3.515-7.075c.088-2.833-1.225-5.873-3.94-9.122-2.682-3.21-5.387-5.016-8.115-5.42s-5.257.37-7.588 2.318c-2.33 1.948-3.542 4.318-3.633 7.11-.093 2.792 1.21 5.8 3.902 9.02zM292.693 154.163l-6.902 4.082-6.963-5.516-12.56 7.427 1.626 8.672-6.73 3.98-6.343-38.663 6.71-3.967 31.163 23.983zm-19.034-5.525l-11.226-9.1 2.65 14.17 8.575-5.07zM296.4 152.652l-13.437-33.944 14.425-5.71c3.627-1.436 6.384-2.174 8.27-2.216 1.885-.04 3.63.523 5.235 1.69 1.605 1.168 2.805 2.756 3.6 4.762 1.007 2.547 1.09 4.947.25 7.198-.84 2.252-2.664 4.185-5.472 5.796 1.825.278 3.424.743 4.798 1.395s3.4 1.974 6.083 3.966l6.767 4.98-8.197 3.245-7.88-5.425c-2.804-1.943-4.666-3.13-5.586-3.56-.92-.43-1.793-.63-2.62-.597-.827.033-2.027.36-3.6.984l-1.39.55 5.61 14.17-6.853 2.715zm-.9-22.3l5.07-2.008c3.29-1.302 5.287-2.253 5.995-2.855.708-.603 1.16-1.335 1.354-2.197.193-.863.09-1.803-.314-2.822-.452-1.14-1.122-1.942-2.01-2.404-.888-.46-1.924-.564-3.108-.31-.586.144-2.27.765-5.047 1.865l-5.348 2.12 3.408 8.61zM322.914 104.01l13.15-2.93c2.965-.66 5.276-.937 6.933-.83 2.228.15 4.26.844 6.103 2.083 1.84 1.24 3.404 2.912 4.69 5.015 1.284 2.104 2.298 4.824 3.042 8.162.653 2.933.852 5.542.596 7.827-.313 2.792-1.118 5.173-2.413 7.146-.977 1.494-2.45 2.817-4.422 3.97-1.477.857-3.543 1.58-6.2 2.173l-13.54 3.017-7.94-35.633zm8.538 4.425l5.26 23.602 5.37-1.197c2.01-.448 3.436-.884 4.276-1.31 1.102-.552 1.96-1.262 2.574-2.13s.987-2.155 1.118-3.86c.13-1.703-.11-3.933-.725-6.687-.614-2.754-1.328-4.815-2.143-6.182-.814-1.365-1.75-2.364-2.81-2.996-1.06-.63-2.295-.943-3.705-.935-1.056-.003-3.05.32-5.982.975l-3.233.72zM379.9 112.495c.06-3.718.666-6.83 1.82-9.335.86-1.845 2.02-3.495 3.48-4.95 1.458-1.454 3.05-2.524 4.77-3.21 2.29-.926 4.92-1.365 7.892-1.316 5.378.087 9.654 1.825 12.83 5.214 3.173 3.39 4.713 8.055 4.616 13.997-.096 5.893-1.772 10.478-5.03 13.753-3.257 3.276-7.566 4.87-12.928 4.784-5.428-.088-9.717-1.814-12.867-5.177-3.15-3.364-4.678-7.95-4.584-13.76zm7.598-.126c-.067 4.132.836 7.28 2.71 9.445 1.875 2.164 4.282 3.27 7.22 3.317 2.938.047 5.367-.972 7.285-3.058s2.912-5.245 2.98-9.478c.067-4.183-.8-7.318-2.6-9.407-1.8-2.09-4.22-3.158-7.258-3.207-3.038-.05-5.503.953-7.396 3.006-1.894 2.053-2.875 5.18-2.942 9.38zM420.817 131.734l5.515-36.088 24.74 3.78-.934 6.104-17.453-2.667-1.306 8.542 15.064 2.302-.933 6.105-15.064-2.302-2.343 15.336-7.286-1.112zM472.926 143.41l10.27-28.54-10.192-3.668 2.09-5.81 27.3 9.82-2.092 5.812-10.17-3.66-10.27 28.54-6.936-2.495zM494.454 151.52l17.2-32.2 13.685 7.31c3.44 1.837 5.786 3.462 7.037 4.874 1.25 1.412 1.95 3.107 2.096 5.086.147 1.98-.287 3.92-1.304 5.825-1.292 2.416-3.068 4.032-5.33 4.847-2.26.815-4.914.673-7.96-.426.97 1.57 1.647 3.092 2.04 4.562.39 1.47.693 3.872.907 7.205l.576 8.382-7.775-4.154-.957-9.517c-.33-3.396-.63-5.583-.897-6.564-.267-.98-.68-1.776-1.24-2.385-.56-.61-1.584-1.313-3.078-2.11l-1.317-.705-7.182 13.442-6.502-3.473zm16.428-15.11l4.81 2.57c3.12 1.666 5.138 2.574 6.055 2.725.917.15 1.767.02 2.55-.388.784-.41 1.435-1.098 1.95-2.064.58-1.083.757-2.113.535-3.088-.224-.975-.814-1.833-1.774-2.57-.488-.355-2.05-1.237-4.687-2.645l-5.072-2.71-4.366 8.17zM548.64 140.237l5.882 4.443-11.92 15.776c-1.89 2.504-3.044 4.18-3.458 5.033-.65 1.38-.773 2.79-.37 4.228.4 1.438 1.423 2.777 3.065 4.018 1.668 1.26 3.184 1.87 4.547 1.83 1.363-.043 2.507-.496 3.43-1.36.922-.862 2.254-2.446 3.995-4.75l12.174-16.115 5.882 4.444-11.56 15.3c-2.64 3.497-4.666 5.848-6.075 7.05-1.408 1.205-2.915 1.98-4.52 2.33-1.605.347-3.346.275-5.222-.216-1.875-.492-3.966-1.608-6.27-3.35-2.78-2.1-4.648-4.016-5.6-5.744s-1.458-3.42-1.517-5.078c-.06-1.657.204-3.15.79-4.475.876-1.958 2.546-4.567 5.008-7.826l11.74-15.537zM562.863 182.5l5.513 4.64c-1.42 1.99-2.07 3.854-1.956 5.586.115 1.733.957 3.4 2.523 5.003 1.66 1.696 3.27 2.624 4.83 2.783 1.56.16 2.82-.232 3.78-1.172.617-.603.966-1.297 1.045-2.083s-.162-1.786-.723-3c-.39-.828-1.386-2.605-2.986-5.335-2.064-3.51-3.14-6.333-3.234-8.47-.13-3.008.837-5.52 2.902-7.54 1.33-1.3 2.94-2.14 4.836-2.518 1.895-.378 3.838-.154 5.83.673 1.992.826 3.97 2.243 5.93 4.25 3.204 3.275 4.897 6.444 5.08 9.504s-.885 5.805-3.2 8.232l-5.385-5.044c1.12-1.537 1.61-2.964 1.474-4.28-.14-1.316-.933-2.717-2.383-4.2-1.497-1.532-2.983-2.423-4.46-2.674-.95-.164-1.762.086-2.438.748-.617.604-.89 1.38-.818 2.333.092 1.21 1.09 3.394 2.99 6.55 1.9 3.155 3.13 5.664 3.684 7.525.554 1.86.61 3.687.167 5.48-.442 1.79-1.49 3.493-3.14 5.105-1.495 1.462-3.303 2.417-5.42 2.862-2.12.446-4.238.22-6.358-.68-2.12-.898-4.29-2.48-6.507-4.748-3.227-3.3-4.94-6.58-5.146-9.84s.986-6.492 3.57-9.69zM583.898 223.488l24.392-18.03-6.438-8.71 4.966-3.67 17.244 23.33-4.966 3.67-6.424-8.69-24.392 18.028-4.382-5.928zM597.222 242.214l32.07-17.442 12.934 23.78-5.426 2.95-9.41-17.304-7.11 3.867 8.757 16.1-5.404 2.94-8.756-16.1-8.73 4.746 9.744 17.918-5.402 2.94-13.266-24.394zM613.003 272.357l34.257-12.618 9.356 25.4-5.795 2.134-6.808-18.484-7.595 2.797 6.335 17.2-5.77 2.125-6.336-17.2-9.324 3.435 7.05 19.138-5.772 2.126-9.597-26.053zM635.497 300.212l2.16 6.875c-2.27.918-3.818 2.14-4.65 3.663s-1.02 3.382-.56 5.576c.49 2.323 1.35 3.97 2.58 4.94 1.23.972 2.504 1.32 3.82 1.043.845-.18 1.51-.578 2-1.198.488-.62.822-1.594 1.002-2.92.113-.907.228-2.94.344-6.104.145-4.068.752-7.03 1.82-8.883 1.505-2.606 3.67-4.207 6.498-4.802 1.82-.383 3.63-.225 5.43.474 1.802.698 3.32 1.93 4.558 3.698 1.237 1.767 2.145 4.023 2.722 6.77.943 4.483.67 8.065-.818 10.745-1.49 2.68-3.863 4.42-7.12 5.226l-1.835-7.146c1.77-.695 2.95-1.635 3.542-2.82.59-1.184.672-2.79.245-4.822-.44-2.096-1.217-3.646-2.327-4.65-.713-.648-1.532-.875-2.46-.68-.844.178-1.49.687-1.942 1.528-.572 1.07-.903 3.447-.993 7.13-.09 3.684-.402 6.46-.934 8.328-.53 1.868-1.465 3.438-2.8 4.71s-3.132 2.148-5.39 2.624c-2.048.43-4.084.265-6.11-.496-2.026-.762-3.693-2.09-5-3.987-1.306-1.897-2.286-4.396-2.938-7.5-.95-4.517-.636-8.205.942-11.064 1.578-2.86 4.316-4.947 8.213-6.258z"/></g><path d="M151.27 391.126l6.236 12.636 13.945 2.027-10.09 9.835 2.382 13.888-12.472-6.557-12.473 6.557 2.382-13.888-10.092-9.836 13.945-2.028M637.808 390.51l6.236 12.636 13.945 2.028-10.092 9.836 2.382 13.887-12.472-6.556-12.473 6.557 2.382-13.887-10.09-9.836 13.944-2.028"/><g><defs><path id="a" d="M606.125 366c0 53.228-19.826 101.704-52.125 138.875-38.432 44.23-94.712 72.375-158.885 72.375-64.678 0-120.777-28.84-159.99-73.625-32.39-36.992-50.93-84.646-50.93-137.375"/></defs><clipPath id="b"><use xlink:href="#a" overflow="visible"/></clipPath><path clip-path="url(#b)" fill="#096DBB" d="M184.194 366.25h424.153l-1.54 11.54s-24.757 10.22-58.696 50.73c-36.024 43-40.497 86.888-47.533 87.5-11.508 1-4.302-28.283-9.006-27.5-3.98.66-2.078 17.39-8.256 17.25-3.97-.09-12.776-2.4-17.763.5-8.84 5.14-13.258 15-13.258 15l-18.764-25.5-13.76.5-10.008-5.75-35.025 9.75-20.765-25-30.522-4.75-55.54 2.5-9.507-8-5.503-15-14.26 7.75-9.507-22s-11.76-19.25-20.015-27.5-24.152-12.79-24.152-12.79"/><path clip-path="url(#b)" fill="none" stroke="#096DBB" stroke-width="6" d="M604.5 408H185M598.5 429h-408M590 448H195.5M582 470H208.5M568.5 491.5h-346M550.5 512h-311M529.5 532H260M502 553H293"/></g><g><defs><path id="c" d="M180.5 366.313c0-118.104 96.51-213.966 214.615-213.966 118.104 0 213.846 95.742 213.846 213.846"/></defs><clipPath id="d"><use xlink:href="#c" overflow="visible"/></clipPath><path clip-path="url(#d)" d="M182.25 367.25l426.04 2.54-1.54-11.54s-24.738-10.222-58.652-50.73c-36-43-40.47-86.89-47.5-87.5-11.5-1-4.3 28.282-9 27.5-3.98-.662-2.078-17.39-8.25-17.25-3.967.09-12.768 2.398-17.75-.5-8.836-5.14-13.25-15-13.25-15l-18.75 25.5-13.75-.5-10 5.75-35-9.75-20.75 25-30.5 4.75-55.5-2.5-9.5 8-5.5 15-14.25-7.75-9.5 22s-11.75 19.25-20 27.5-24.135 12.788-24.135 12.788"/><path clip-path="url(#d)" fill="none" stroke="#29AFE8" stroke-width="4" d="M289.5 202.5l76-20 33 .5 83 18.5s-41 5-93.5 6.5-98.5-5.5-98.5-5.5zM379 299.5l73-12.5 34.5 1 79.5 12s-39.5 2-92 3.5-95-4-95-4z"/></g></svg>